<?xml version="1.0" encoding="UTF-8"?><svg id="artwork" xmlns="http://www.w3.org/2000/svg" xmlns:xlink="http://www.w3.org/1999/xlink" viewBox="0 0 1747.61 1724.03"><defs><style>.cls-1{fill:url(#linear-gradient-2);}.cls-2{fill:#fff;}.cls-3{fill:#004aad;}.cls-4{fill:url(#linear-gradient);}</style><linearGradient id="linear-gradient" x1="-18999.02" y1="791.24" x2="-18803.67" y2="791.24" gradientTransform="translate(-18803.67) rotate(-180) scale(1 -1)" gradientUnits="userSpaceOnUse"><stop offset=".2" stop-color="#fff" stop-opacity="0"/><stop offset=".27" stop-color="#fff" stop-opacity=".12"/><stop offset=".51" stop-color="#fff" stop-opacity=".49"/><stop offset=".7" stop-color="#fff" stop-opacity=".77"/><stop offset=".83" stop-color="#fff" stop-opacity=".94"/><stop offset=".9" stop-color="#fff"/></linearGradient><linearGradient id="linear-gradient-2" x1="716.29" y1="791.24" x2="1058.16" y2="791.24" gradientUnits="userSpaceOnUse"><stop offset=".2" stop-color="#004aad"/><stop offset=".27" stop-color="#1e5fb6"/><stop offset=".48" stop-color="#7da3d5"/><stop offset=".66" stop-color="#c3d4eb"/><stop offset=".79" stop-color="#eef3f9"/><stop offset=".85" stop-color="#fff"/></linearGradient></defs><path class="cls-3" d="M206.9,1415.34v-211.6h45.34v211.6h-45.34ZM225.34,1333.42v-38.99h138.14v38.99h-138.14ZM228.36,1244.55v-40.81h147.82v40.81h-147.82Z"/><path class="cls-3" d="M530.86,1418.36c-18.34,0-35.12-2.77-50.33-8.31-15.22-5.54-28.47-13.25-39.75-23.13-11.29-9.87-19.95-21.46-26-34.76-6.05-13.3-9.07-27.71-9.07-43.23s3.07-29.93,9.22-43.23c6.14-13.3,14.81-24.89,26-34.76,11.18-9.87,24.38-17.58,39.6-23.12,15.21-5.54,31.89-8.31,50.03-8.31s35.11,2.77,50.33,8.31c15.21,5.55,28.41,13.25,39.6,23.12,11.18,9.88,19.85,21.46,26,34.76,6.14,13.3,9.22,27.71,9.22,43.23s-3.07,29.93-9.22,43.23c-6.15,13.3-14.81,24.89-26,34.76-11.18,9.88-24.39,17.58-39.6,23.13-15.22,5.54-31.89,8.31-50.03,8.31ZM530.56,1375.44c11.68,0,22.32-1.71,31.89-5.14,9.57-3.42,17.88-8.11,24.94-14.06,7.05-5.94,12.54-12.95,16.47-21.01,3.93-8.06,5.89-16.82,5.89-26.3s-1.96-18.24-5.89-26.3c-3.93-8.06-9.42-15.06-16.47-21.01-7.06-5.94-15.37-10.63-24.94-14.06-9.57-3.42-20.21-5.14-31.89-5.14s-22.02,1.71-31.59,5.14c-9.57,3.43-17.94,8.06-25.09,13.9-7.16,5.85-12.6,12.8-16.32,20.86-3.73,8.06-5.59,16.93-5.59,26.6s1.86,18.29,5.59,26.45c3.73,8.16,9.17,15.17,16.32,21.01,7.15,5.85,15.52,10.48,25.09,13.91,9.57,3.43,20.1,5.14,31.59,5.14Z"/><path class="cls-3" d="M703.79,1415.34v-211.6h114.87c14.91,0,27.96,2.87,39.15,8.62,11.18,5.74,19.9,13.6,26.15,23.58,6.24,9.98,9.37,21.51,9.37,34.61s-3.38,25.19-10.13,35.67c-6.75,10.48-15.87,18.85-27.36,25.09-11.49,6.25-24.29,9.37-38.39,9.37h-69.83v74.66h-43.83ZM747.63,1303.8h65.6c6.24,0,11.94-1.36,17.08-4.08,5.14-2.72,9.22-6.45,12.24-11.18,3.02-4.73,4.53-10.02,4.53-15.87s-1.56-11.28-4.69-15.72c-3.13-4.43-7.46-7.86-13-10.28-5.55-2.42-11.54-3.63-17.99-3.63h-63.78v60.76ZM851.31,1415.34l-66.8-95.52,47.46-7.56,72.85,103.38-53.5-.3Z"/><path class="cls-3" d="M1085.57,1415.34v-211.6h116.98c13.3,0,25.39,2.98,36.27,8.92,10.88,5.95,19.5,14.06,25.85,24.33,6.35,10.28,9.52,21.87,9.52,34.76s-3.43,25.69-10.28,36.58c-6.85,10.88-15.97,19.45-27.36,25.69-11.39,6.25-24.23,9.37-38.54,9.37h-67.11v71.94h-45.34ZM1130.31,1302.59h61.06c6.45,0,12.34-1.31,17.68-3.93,5.34-2.62,9.57-6.3,12.7-11.03,3.12-4.73,4.69-9.92,4.69-15.57s-1.56-10.17-4.69-14.21c-3.13-4.03-7.36-7.26-12.7-9.67-5.34-2.42-11.24-3.63-17.68-3.63h-61.06v58.04Z"/><path class="cls-3" d="M1318.12,1415.34v-211.6h116.98c13.3,0,25.39,2.98,36.27,8.92,10.88,5.95,19.5,14.06,25.84,24.33,6.35,10.28,9.52,21.87,9.52,34.76s-3.43,25.69-10.28,36.58c-6.85,10.88-15.97,19.45-27.36,25.69-11.39,6.25-24.23,9.37-38.54,9.37h-67.11v71.94h-45.34ZM1362.86,1302.59h61.06c6.45,0,12.34-1.31,17.68-3.93,5.34-2.62,9.57-6.3,12.7-11.03,3.12-4.73,4.69-9.92,4.69-15.57s-1.56-10.17-4.69-14.21c-3.13-4.03-7.36-7.26-12.7-9.67-5.34-2.42-11.24-3.63-17.68-3.63h-61.06v58.04Z"/><path class="cls-3" d="M1640.17,1418.36c-15.72,0-29.98-1.56-42.77-4.68-12.8-3.12-24.48-7.56-35.07-13.3-10.58-5.74-20.1-12.64-28.57-20.71l24.18-35.37c13.7,12.7,27.66,21.76,41.87,27.21,14.21,5.44,28.57,8.16,43.08,8.16,7.45,0,14.71-.86,21.76-2.57,7.05-1.71,12.95-4.43,17.68-8.16,4.73-3.73,7.1-8.62,7.1-14.66,0-3.63-1.16-6.75-3.48-9.37-2.32-2.62-5.44-4.84-9.37-6.65-3.93-1.81-8.52-3.27-13.75-4.38-5.24-1.11-10.63-2.01-16.17-2.72-5.55-.7-11.03-1.46-16.47-2.27-13.5-1.81-25.44-4.43-35.82-7.86-10.38-3.42-19.25-7.66-26.6-12.7-7.36-5.03-13-11.23-16.93-18.59-3.93-7.35-5.89-15.67-5.89-24.94,0-10.07,2.42-19.19,7.25-27.36,4.84-8.16,11.64-15.06,20.4-20.71,8.77-5.64,18.84-9.92,30.23-12.85,11.38-2.92,23.63-4.38,36.73-4.38,14.1,0,26.85,1.41,38.24,4.23,11.38,2.82,21.46,6.75,30.23,11.79,8.77,5.04,15.97,10.88,21.61,17.53l-25.09,31.14c-5.44-5.64-11.74-10.32-18.89-14.06-7.16-3.73-14.71-6.6-22.67-8.62-7.96-2.01-16.07-3.02-24.33-3.02-8.87,0-16.73.86-23.58,2.57-6.85,1.71-12.29,4.28-16.32,7.71-4.03,3.43-6.05,7.56-6.05,12.39,0,4.44,1.51,8.16,4.53,11.18s7.05,5.44,12.09,7.26c5.03,1.81,10.83,3.38,17.38,4.69,6.55,1.31,13.35,2.37,20.4,3.17,11.68,1.81,22.92,3.93,33.7,6.35,10.78,2.42,20.4,5.8,28.87,10.13,8.46,4.34,15.11,10.13,19.95,17.38,4.84,7.25,7.25,16.43,7.25,27.51,0,14.51-4.13,26.96-12.39,37.33-8.27,10.38-19.65,18.34-34.16,23.88-14.51,5.54-31.24,8.31-50.18,8.31Z"/><path class="cls-3" d="M206.9,1721.01v-211.6h111.54c17.13,0,31.54,2.07,43.23,6.2,11.69,4.13,20.5,10.13,26.45,17.99,5.94,7.86,8.92,17.23,8.92,28.11,0,11.89-3.38,21.87-10.13,29.93-6.75,8.06-16.88,13.81-30.38,17.23l1.21-6.05c9.07,2.02,17.48,5.34,25.24,9.98,7.76,4.64,13.91,10.68,18.44,18.14,4.53,7.46,6.8,16.32,6.8,26.6,0,12.09-2.32,22.22-6.95,30.38-4.64,8.16-11.03,14.66-19.2,19.5-8.16,4.84-17.18,8.31-27.05,10.43-9.88,2.12-19.85,3.17-29.93,3.17h-118.19ZM250.43,1594.05h68.32c6.24,0,11.94-.95,17.08-2.87,5.14-1.91,9.12-4.58,11.94-8.01,2.82-3.42,4.23-7.56,4.23-12.39,0-7.86-3.32-13.5-9.98-16.93-6.65-3.42-15.32-5.14-26-5.14h-65.6v45.34ZM250.43,1681.71h74.97c7.45,0,14.06-.95,19.8-2.87,5.74-1.91,10.17-4.84,13.3-8.77,3.12-3.93,4.69-8.71,4.69-14.36,0-6.24-1.96-11.23-5.89-14.96-3.93-3.73-8.92-6.45-14.96-8.16-6.05-1.71-12.19-2.57-18.44-2.57h-73.45v51.69Z"/><path class="cls-3" d="M567.13,1724.03c-18.34,0-35.12-2.77-50.33-8.31-15.22-5.54-28.47-13.25-39.75-23.13-11.29-9.87-19.95-21.46-26-34.76-6.05-13.3-9.07-27.71-9.07-43.23s3.07-29.93,9.22-43.23c6.14-13.3,14.81-24.89,26-34.76,11.18-9.87,24.38-17.58,39.6-23.12,15.21-5.54,31.89-8.31,50.03-8.31s35.11,2.77,50.33,8.31c15.21,5.55,28.41,13.25,39.6,23.12,11.18,9.88,19.85,21.46,26,34.76,6.14,13.3,9.22,27.71,9.22,43.23s-3.08,29.93-9.22,43.23c-6.15,13.3-14.81,24.89-26,34.76-11.18,9.88-24.39,17.58-39.6,23.13-15.22,5.54-31.89,8.31-50.03,8.31ZM566.83,1681.11c11.69,0,22.32-1.71,31.89-5.14,9.57-3.42,17.88-8.11,24.94-14.06,7.05-5.94,12.54-12.95,16.47-21.01,3.93-8.06,5.89-16.82,5.89-26.3s-1.96-18.24-5.89-26.3c-3.93-8.06-9.42-15.06-16.47-21.01-7.06-5.94-15.37-10.63-24.94-14.06-9.57-3.42-20.21-5.14-31.89-5.14s-22.02,1.71-31.59,5.14c-9.57,3.43-17.94,8.06-25.09,13.9-7.16,5.85-12.6,12.8-16.32,20.86-3.73,8.06-5.59,16.93-5.59,26.6s1.86,18.29,5.59,26.45c3.73,8.16,9.17,15.17,16.32,21.01,7.15,5.85,15.52,10.48,25.09,13.91,9.57,3.43,20.1,5.14,31.59,5.14Z"/><path class="cls-3" d="M700.47,1721.01l98.54-211.6h44.13l97.94,211.6h-47.46l-58.95-126.96c-1.81-4.03-3.63-8.11-5.44-12.24-1.81-4.13-3.53-8.31-5.14-12.54-1.62-4.23-3.17-8.41-4.69-12.54-1.51-4.13-2.87-8.31-4.08-12.54h9.98c-1.21,4.44-2.62,8.77-4.23,13-1.62,4.23-3.28,8.42-4.99,12.54-1.71,4.13-3.48,8.27-5.29,12.39-1.81,4.13-3.73,8.42-5.74,12.85l-58.64,126.05h-45.95ZM745.51,1678.69l15.42-36.27h118.19l8.77,36.27h-142.38Z"/><path class="cls-3" d="M975.7,1721.01v-211.6h114.87c14.91,0,27.96,2.87,39.15,8.62,11.18,5.74,19.9,13.6,26.15,23.58,6.24,9.98,9.37,21.51,9.37,34.61s-3.38,25.19-10.13,35.67c-6.75,10.48-15.87,18.85-27.36,25.09-11.49,6.25-24.29,9.37-38.39,9.37h-69.83v74.66h-43.83ZM1019.53,1609.47h65.6c6.24,0,11.94-1.36,17.08-4.08,5.14-2.72,9.22-6.45,12.24-11.18,3.02-4.73,4.53-10.02,4.53-15.87s-1.56-11.28-4.69-15.72c-3.13-4.43-7.46-7.86-13-10.28-5.55-2.42-11.54-3.63-17.99-3.63h-63.78v60.76ZM1123.21,1721.01l-66.8-95.52,47.46-7.56,72.85,103.38-53.5-.3Z"/><path class="cls-3" d="M1222.09,1721.01v-211.6h104.29c18.54,0,35.07,2.72,49.57,8.16,14.51,5.44,26.8,13.05,36.88,22.82,10.07,9.78,17.73,21.06,22.97,33.86,5.24,12.8,7.86,26.45,7.86,40.96s-2.62,28.47-7.86,41.26c-5.24,12.8-12.9,24.03-22.97,33.7-10.08,9.67-22.37,17.23-36.88,22.67-14.51,5.44-31.04,8.16-49.57,8.16h-104.29ZM1267.43,1688.06l-4.84-7.86h62.27c12.29,0,22.92-1.71,31.89-5.14,8.96-3.42,16.42-8.11,22.37-14.06,5.94-5.94,10.32-12.85,13.15-20.71,2.82-7.86,4.23-16.22,4.23-25.09s-1.41-17.18-4.23-24.94c-2.82-7.76-7.21-14.61-13.15-20.56-5.95-5.94-13.4-10.68-22.37-14.21-8.97-3.52-19.6-5.29-31.89-5.29h-63.18l5.74-7.26v145.1Z"/><path class="cls-3" d="M957.84,450.24c-148.37,0-261.09-92.96-261.09-225.12S818.62,0,957.22,0s260.47,88.79,260.47,225.12-118.24,225.12-259.85,225.12ZM957.22,351.01c82.89,0,153.18-48.97,153.18-125.89s-71.34-125.89-153.18-125.89-152.56,45.71-152.56,125.89c0,89.29,85.78,125.89,152.56,125.89Z"/><path class="cls-3" d="M1327.76,444.04V9.92h231.94c37.89,0,164.96,8.37,164.96,109.61,0,16.73-1.94,81.09-82.48,100.31l1.86-11.78c3.3.73,103.57,11.93,103.57,104.5,0,124.64-137.01,131.47-174.27,131.47h-245.58ZM1426.98,187.6h129.61c4.72,0,64.5-2.84,64.5-46.36,0-35.48-44.38-43.26-68.22-43.26h-125.89v89.61ZM1426.98,355.97h146.98c42.4,0,70.08-16.67,70.08-48.37,0-40.85-52.88-41.24-73.18-41.24h-143.88v89.61Z"/><path class="cls-3" d="M306.13,187.6h129.61c18.07,0,64.5-2.74,64.5-46.36,0-35.48-39.04-43.26-68.22-43.26h-125.89v89.61ZM450.01,266.36h-143.88v177.68h-99.23V9.92h231.94c96.89,0,164.96,43.62,164.96,124.61,0,89.88-61.91,131.82-153.8,131.82Z"/><polygon class="cls-3" points="506.96 444.04 369.91 248.06 476.67 232.56 626.13 444.04 506.96 444.04"/><rect class="cls-3" x="368.38" y="751.86" width="347.91" height="78.76"/><rect class="cls-4" x="0" y="751.86" width="195.35" height="78.76"/><path class="cls-3" d="M615,789.37c0,44.46-35.53,125.9-159.18,125.9-22.33,0-42.79-3.2-61.4-9.61-17.79-6.13-33.42-14.44-46.86-24.94-.61-.45-1.22-.94-1.82-1.42-13.86-11.17-24.4-24.5-31.63-40-7.24-15.51-10.85-32.14-10.85-49.93s3.61-34.93,10.85-50.23c7.23-15.29,17.77-28.53,31.63-39.69,13.85-11.16,30.08-19.94,48.68-26.36,18.61-6.4,39.07-9.61,61.4-9.61s42.89,3.21,61.7,9.61c17.98,6.14,33.6,14.52,46.87,25.19l80.63-67.84c-.63-.57-1.27-1.13-1.91-1.69-23.16-20.25-50.65-36.06-82.49-47.44-31.84-11.37-66.77-17.05-104.8-17.05s-72.87,5.68-104.5,17.05c-31.63,11.38-59.13,27.19-82.48,47.44-23.36,20.27-41.46,44.03-54.27,71.32-12.82,27.29-19.22,57.06-19.22,89.3s6.4,62.02,19.22,89.31c12.51,26.64,29.96,49.95,52.35,69.9.53.47,1.07.95,1.61,1.42,23.15,20.26,50.64,36.07,82.48,47.44,31.83,11.37,66.98,17.05,105.43,17.05,229.6,0,259.85-192.87,259.85-225.12h-101.29Z"/><path class="cls-2" d="M1155.83,751.7v79.08c-92.28,2.79-179.61,43.65-240.93,113.07l-56.93,64.45-60.28-50.72,58.18-65.87c37.75-42.75,83.49-76.72,134-100.47-50.51-23.75-96.25-57.72-134-100.47l-58.18-65.86,60.28-50.72,56.93,64.44c61.32,69.42,148.65,110.28,240.93,113.07Z"/><rect class="cls-1" x="716.29" y="751.86" width="341.87" height="78.76"/></svg>