<?xml version="1.0" encoding="UTF-8"?><svg id="artwork" xmlns="http://www.w3.org/2000/svg" xmlns:xlink="http://www.w3.org/1999/xlink" viewBox="0 0 2612.1 1014.49"><defs><style>.cls-1{fill:url(#linear-gradient-2);}.cls-2{fill:#fff;}.cls-3{fill:#ffde59;}.cls-4{fill:url(#linear-gradient);}</style><linearGradient id="linear-gradient" x1="-13243.08" y1="791.24" x2="-13047.72" y2="791.24" gradientTransform="translate(-13047.72) rotate(-180) scale(1 -1)" gradientUnits="userSpaceOnUse"><stop offset=".2" stop-color="#ffde59" stop-opacity="0"/><stop offset=".27" stop-color="#ffde59" stop-opacity=".12"/><stop offset=".51" stop-color="#ffde59" stop-opacity=".49"/><stop offset=".7" stop-color="#ffde59" stop-opacity=".77"/><stop offset=".83" stop-color="#ffde59" stop-opacity=".94"/><stop offset=".9" stop-color="#ffde59"/></linearGradient><linearGradient id="linear-gradient-2" x1="716.29" y1="791.24" x2="1058.16" y2="791.24" gradientUnits="userSpaceOnUse"><stop offset=".2" stop-color="#fff"/><stop offset=".33" stop-color="#fff7d9"/><stop offset=".58" stop-color="#ffe994"/><stop offset=".76" stop-color="#ffe169"/><stop offset=".85" stop-color="#ffde59"/></linearGradient></defs><path class="cls-2" d="M1327.76,751.9v-177.62h38.06v177.62h-38.06ZM1343.24,683.13v-32.73h115.96v32.73h-115.96ZM1345.77,608.53v-34.26h124.08v34.26h-124.08Z"/><path class="cls-2" d="M1599.7,754.43c-15.4,0-29.48-2.33-42.25-6.98-12.77-4.65-23.9-11.12-33.37-19.41-9.48-8.29-16.75-18.02-21.82-29.18-5.07-11.17-7.61-23.26-7.61-36.29s2.58-25.12,7.74-36.29c5.16-11.17,12.43-20.89,21.82-29.18,9.39-8.29,20.47-14.76,33.24-19.41,12.77-4.65,26.77-6.98,42-6.98s29.47,2.33,42.25,6.98c12.77,4.65,23.85,11.12,33.24,19.41,9.39,8.29,16.66,18.02,21.82,29.18,5.16,11.17,7.74,23.26,7.74,36.29s-2.58,25.12-7.74,36.29c-5.16,11.16-12.43,20.9-21.82,29.18-9.39,8.29-20.47,14.76-33.24,19.41-12.77,4.65-26.77,6.98-42,6.98ZM1599.45,718.4c9.81,0,18.73-1.44,26.77-4.31,8.03-2.88,15.01-6.81,20.93-11.8,5.92-4.99,10.53-10.87,13.83-17.64,3.3-6.76,4.95-14.12,4.95-22.08s-1.65-15.31-4.95-22.08c-3.3-6.76-7.91-12.64-13.83-17.64-5.92-4.99-12.9-8.92-20.93-11.8-8.04-2.87-16.96-4.31-26.77-4.31s-18.48,1.44-26.52,4.31c-8.04,2.88-15.06,6.77-21.06,11.67-6.01,4.91-10.57,10.74-13.7,17.51-3.13,6.77-4.69,14.21-4.69,22.33s1.56,15.35,4.69,22.2c3.13,6.85,7.7,12.73,13.7,17.64,6,4.91,13.02,8.8,21.06,11.67,8.03,2.88,16.87,4.31,26.52,4.31Z"/><path class="cls-2" d="M1744.87,751.9v-177.62h96.43c12.52,0,23.47,2.41,32.86,7.23s16.7,11.42,21.95,19.79c5.24,8.37,7.87,18.06,7.87,29.05s-2.83,21.15-8.5,29.94c-5.67,8.8-13.32,15.82-22.96,21.06-9.64,5.25-20.39,7.87-32.23,7.87h-58.62v62.68h-36.79ZM1781.66,658.26h55.06c5.24,0,10.02-1.14,14.34-3.43,4.31-2.28,7.74-5.41,10.28-9.39,2.54-3.97,3.81-8.41,3.81-13.32s-1.31-9.47-3.93-13.19c-2.62-3.72-6.26-6.6-10.91-8.63-4.65-2.03-9.69-3.05-15.1-3.05h-53.54v51ZM1868.7,751.9l-56.08-80.19,39.84-6.34,61.15,86.78-44.91-.25Z"/><path class="cls-2" d="M2065.35,751.9v-177.62h98.2c11.17,0,21.31,2.5,30.45,7.49,9.14,4.99,16.37,11.8,21.7,20.43s7.99,18.36,7.99,29.18-2.88,21.57-8.63,30.7c-5.75,9.14-13.41,16.33-22.96,21.57-9.56,5.25-20.34,7.87-32.35,7.87h-56.33v60.39h-38.06ZM2102.91,657.25h51.26c5.41,0,10.36-1.1,14.84-3.3,4.48-2.2,8.03-5.29,10.66-9.26,2.62-3.97,3.93-8.33,3.93-13.07s-1.31-8.54-3.93-11.93c-2.62-3.38-6.18-6.09-10.66-8.12-4.48-2.03-9.43-3.04-14.84-3.04h-51.26v48.72Z"/><path class="cls-2" d="M2260.56,751.9v-177.62h98.2c11.17,0,21.32,2.5,30.45,7.49,9.13,4.99,16.37,11.8,21.7,20.43,5.33,8.63,7.99,18.36,7.99,29.18s-2.88,21.57-8.63,30.7c-5.75,9.14-13.41,16.33-22.96,21.57-9.56,5.25-20.34,7.87-32.35,7.87h-56.33v60.39h-38.06ZM2298.12,657.25h51.26c5.41,0,10.36-1.1,14.84-3.3,4.48-2.2,8.03-5.29,10.66-9.26,2.62-3.97,3.93-8.33,3.93-13.07s-1.31-8.54-3.93-11.93c-2.62-3.38-6.18-6.09-10.66-8.12-4.48-2.03-9.43-3.04-14.84-3.04h-51.26v48.72Z"/><path class="cls-2" d="M2530.91,754.43c-13.19,0-25.17-1.31-35.91-3.93-10.74-2.62-20.55-6.34-29.44-11.17s-16.87-10.61-23.98-17.38l20.3-29.69c11.5,10.66,23.22,18.27,35.14,22.84,11.93,4.57,23.98,6.85,36.16,6.85,6.26,0,12.35-.72,18.27-2.16,5.92-1.43,10.87-3.72,14.84-6.85,3.97-3.13,5.96-7.23,5.96-12.31,0-3.04-.98-5.67-2.92-7.87-1.95-2.2-4.57-4.06-7.87-5.58s-7.15-2.75-11.55-3.68c-4.4-.93-8.92-1.69-13.58-2.28-4.65-.59-9.26-1.23-13.83-1.9-11.34-1.52-21.36-3.72-30.07-6.6-8.71-2.87-16.16-6.43-22.33-10.66-6.18-4.23-10.91-9.43-14.21-15.61-3.3-6.17-4.95-13.15-4.95-20.93,0-8.46,2.03-16.11,6.09-22.96,4.06-6.85,9.77-12.64,17.13-17.38,7.36-4.73,15.82-8.33,25.38-10.78,9.56-2.45,19.83-3.68,30.83-3.68,11.84,0,22.54,1.19,32.1,3.55,9.56,2.37,18.02,5.67,25.38,9.9,7.36,4.23,13.41,9.13,18.14,14.72l-21.06,26.14c-4.57-4.73-9.86-8.67-15.86-11.8-6.01-3.13-12.35-5.54-19.03-7.23-6.69-1.69-13.49-2.54-20.43-2.54-7.45,0-14.04.72-19.79,2.16-5.75,1.44-10.32,3.6-13.7,6.47-3.39,2.88-5.08,6.34-5.08,10.4,0,3.72,1.27,6.85,3.81,9.39s5.92,4.57,10.15,6.09c4.23,1.52,9.09,2.83,14.59,3.93,5.5,1.1,11.2,1.99,17.13,2.66,9.81,1.52,19.24,3.3,28.29,5.33,9.05,2.03,17.13,4.86,24.23,8.5,7.1,3.64,12.69,8.5,16.75,14.59,4.06,6.09,6.09,13.79,6.09,23.09,0,12.18-3.47,22.63-10.4,31.34-6.94,8.71-16.49,15.4-28.67,20.05-12.18,4.65-26.22,6.98-42.12,6.98Z"/><path class="cls-2" d="M1327.76,1008.49v-177.62h93.63c14.38,0,26.47,1.74,36.29,5.2,9.81,3.47,17.21,8.5,22.2,15.1,4.99,6.6,7.49,14.46,7.49,23.6,0,9.98-2.83,18.36-8.5,25.12-5.67,6.77-14.17,11.59-25.5,14.46l1.02-5.08c7.61,1.69,14.67,4.48,21.19,8.37,6.51,3.89,11.67,8.97,15.48,15.22,3.81,6.26,5.71,13.7,5.71,22.33,0,10.15-1.95,18.65-5.84,25.5-3.89,6.85-9.26,12.31-16.11,16.37-6.85,4.06-14.42,6.98-22.71,8.75-8.29,1.78-16.66,2.66-25.12,2.66h-99.22ZM1364.3,901.91h57.35c5.24,0,10.02-.8,14.34-2.41,4.31-1.61,7.65-3.85,10.02-6.72,2.37-2.87,3.55-6.34,3.55-10.4,0-6.6-2.79-11.33-8.37-14.21-5.58-2.87-12.86-4.31-21.82-4.31h-55.06v38.06ZM1364.3,975.5h62.93c6.26,0,11.8-.8,16.62-2.41,4.82-1.61,8.54-4.06,11.17-7.36,2.62-3.3,3.93-7.32,3.93-12.05,0-5.24-1.65-9.43-4.95-12.56-3.3-3.13-7.49-5.41-12.56-6.85-5.07-1.44-10.24-2.16-15.48-2.16h-61.66v43.39Z"/><path class="cls-2" d="M1630.15,1011.03c-15.4,0-29.48-2.33-42.25-6.98-12.77-4.65-23.9-11.12-33.37-19.41-9.48-8.29-16.75-18.02-21.82-29.18-5.07-11.17-7.61-23.26-7.61-36.29s2.58-25.12,7.74-36.29c5.16-11.17,12.43-20.89,21.82-29.18,9.39-8.29,20.47-14.76,33.24-19.41,12.77-4.65,26.77-6.98,42-6.98s29.47,2.33,42.25,6.98c12.77,4.65,23.85,11.12,33.24,19.41,9.39,8.29,16.66,18.02,21.82,29.18,5.16,11.17,7.74,23.26,7.74,36.29s-2.58,25.12-7.74,36.29c-5.16,11.16-12.43,20.9-21.82,29.18-9.39,8.29-20.47,14.76-33.24,19.41-12.77,4.65-26.77,6.98-42,6.98ZM1629.9,974.99c9.81,0,18.73-1.44,26.77-4.31,8.03-2.88,15.01-6.81,20.93-11.8,5.92-4.99,10.53-10.87,13.83-17.64,3.3-6.76,4.95-14.12,4.95-22.08s-1.65-15.31-4.95-22.08c-3.3-6.76-7.91-12.64-13.83-17.64-5.92-4.99-12.9-8.92-20.93-11.8-8.04-2.87-16.96-4.31-26.77-4.31s-18.48,1.44-26.52,4.31c-8.04,2.88-15.06,6.77-21.06,11.67-6.01,4.91-10.57,10.74-13.7,17.51-3.13,6.77-4.69,14.21-4.69,22.33s1.56,15.35,4.69,22.2c3.13,6.85,7.7,12.73,13.7,17.64,6,4.91,13.02,8.8,21.06,11.67,8.03,2.88,16.87,4.31,26.52,4.31Z"/><path class="cls-2" d="M1742.08,1008.49l82.72-177.62h37.05l82.21,177.62h-39.84l-49.48-106.58c-1.52-3.38-3.04-6.81-4.57-10.28-1.52-3.47-2.96-6.98-4.31-10.53-1.36-3.55-2.66-7.06-3.93-10.53-1.27-3.47-2.41-6.98-3.43-10.53h8.37c-1.02,3.72-2.2,7.36-3.55,10.91-1.36,3.55-2.75,7.07-4.19,10.53-1.44,3.47-2.92,6.94-4.44,10.4-1.52,3.47-3.13,7.07-4.82,10.78l-49.23,105.81h-38.57ZM1779.89,972.96l12.94-30.45h99.22l7.36,30.45h-119.52Z"/><path class="cls-2" d="M1973.12,1008.49v-177.62h96.43c12.52,0,23.47,2.41,32.86,7.23s16.7,11.42,21.95,19.79c5.24,8.37,7.87,18.06,7.87,29.05s-2.83,21.15-8.5,29.94c-5.67,8.8-13.32,15.82-22.96,21.06-9.64,5.25-20.39,7.87-32.23,7.87h-58.62v62.68h-36.79ZM2009.91,914.86h55.06c5.24,0,10.02-1.14,14.34-3.43,4.31-2.28,7.74-5.41,10.28-9.39,2.54-3.97,3.81-8.41,3.81-13.32s-1.31-9.47-3.93-13.19c-2.62-3.72-6.26-6.6-10.91-8.63-4.65-2.03-9.69-3.05-15.1-3.05h-53.54v51ZM2096.95,1008.49l-56.08-80.19,39.84-6.34,61.15,86.78-44.91-.25Z"/><path class="cls-2" d="M2179.95,1008.49v-177.62h87.54c15.56,0,29.44,2.28,41.62,6.85,12.18,4.57,22.5,10.96,30.96,19.16,8.46,8.21,14.88,17.68,19.29,28.42,4.4,10.75,6.6,22.2,6.6,34.38s-2.2,23.9-6.6,34.64c-4.4,10.75-10.83,20.17-19.29,28.29-8.46,8.12-18.78,14.46-30.96,19.03-12.18,4.57-26.05,6.85-41.62,6.85h-87.54ZM2218.01,980.83l-4.06-6.6h52.27c10.32,0,19.24-1.44,26.77-4.31,7.53-2.87,13.79-6.81,18.78-11.8,4.99-4.99,8.67-10.78,11.04-17.38,2.37-6.6,3.55-13.62,3.55-21.06s-1.19-14.42-3.55-20.93c-2.37-6.51-6.05-12.26-11.04-17.25-4.99-4.99-11.25-8.96-18.78-11.93-7.53-2.96-16.45-4.44-26.77-4.44h-53.03l4.82-6.09v121.8Z"/><path class="cls-2" d="M957.84,450.24c-148.37,0-261.09-92.96-261.09-225.12S818.62,0,957.22,0s260.47,88.79,260.47,225.12-118.24,225.12-259.85,225.12ZM957.22,351.01c82.89,0,153.18-48.97,153.18-125.89s-71.34-125.89-153.18-125.89-152.56,45.71-152.56,125.89c0,89.29,85.78,125.89,152.56,125.89Z"/><path class="cls-2" d="M1327.76,444.04V9.92h231.94c37.89,0,164.96,8.37,164.96,109.61,0,16.73-1.94,81.09-82.48,100.31l1.86-11.78c3.3.73,103.57,11.93,103.57,104.5,0,124.64-137.01,131.47-174.27,131.47h-245.58ZM1426.98,187.6h129.61c4.72,0,64.5-2.84,64.5-46.36,0-35.48-44.38-43.26-68.22-43.26h-125.89v89.61ZM1426.98,355.97h146.98c42.4,0,70.08-16.67,70.08-48.37,0-40.85-52.88-41.24-73.18-41.24h-143.88v89.61Z"/><path class="cls-2" d="M306.13,187.6h129.61c18.07,0,64.5-2.74,64.5-46.36,0-35.48-39.04-43.26-68.22-43.26h-125.89v89.61ZM450.01,266.36h-143.88v177.68h-99.23V9.92h231.94c96.89,0,164.96,43.62,164.96,124.61,0,89.88-61.91,131.82-153.8,131.82Z"/><polygon class="cls-2" points="506.96 444.04 369.91 248.06 476.67 232.56 626.13 444.04 506.96 444.04"/><rect class="cls-2" x="368.38" y="751.86" width="347.91" height="78.76"/><rect class="cls-4" x="0" y="751.86" width="195.35" height="78.76"/><path class="cls-2" d="M615,789.37c0,44.46-35.53,125.9-159.18,125.9-22.33,0-42.79-3.2-61.4-9.61-17.79-6.13-33.42-14.44-46.86-24.94-.61-.45-1.22-.94-1.82-1.42-13.86-11.17-24.4-24.5-31.63-40-7.24-15.51-10.85-32.14-10.85-49.93s3.61-34.93,10.85-50.23c7.23-15.29,17.77-28.53,31.63-39.69,13.85-11.16,30.08-19.94,48.68-26.36,18.61-6.4,39.07-9.61,61.4-9.61s42.89,3.21,61.7,9.61c17.98,6.14,33.6,14.52,46.87,25.19l80.63-67.84c-.63-.57-1.27-1.13-1.91-1.69-23.16-20.25-50.65-36.06-82.49-47.44-31.84-11.37-66.77-17.05-104.8-17.05s-72.87,5.68-104.5,17.05c-31.63,11.38-59.13,27.19-82.48,47.44-23.36,20.27-41.46,44.03-54.27,71.32-12.82,27.29-19.22,57.06-19.22,89.3s6.4,62.02,19.22,89.31c12.51,26.64,29.96,49.95,52.35,69.9.53.47,1.07.95,1.61,1.42,23.15,20.26,50.64,36.07,82.48,47.44,31.83,11.37,66.98,17.05,105.43,17.05,229.6,0,259.85-192.87,259.85-225.12h-101.29Z"/><path class="cls-3" d="M1155.83,751.7v79.08c-92.28,2.79-179.61,43.65-240.93,113.07l-56.93,64.45-60.28-50.72,58.18-65.87c37.75-42.75,83.49-76.72,134-100.47-50.51-23.75-96.25-57.72-134-100.47l-58.18-65.86,60.28-50.72,56.93,64.44c61.32,69.42,148.65,110.28,240.93,113.07Z"/><rect class="cls-1" x="716.29" y="751.86" width="341.87" height="78.76"/></svg>