<?xml version="1.0" encoding="UTF-8"?><svg id="artwork" xmlns="http://www.w3.org/2000/svg" xmlns:xlink="http://www.w3.org/1999/xlink" viewBox="0 0 2934.06 739.64"><defs><style>.cls-1{fill:url(#linear-gradient-2);}.cls-2{fill:#fff;}.cls-3{fill:#ffde59;}.cls-4{fill:url(#linear-gradient);}</style><linearGradient id="linear-gradient" x1="-5102.94" y1="22208.5" x2="-4907.59" y2="22208.5" gradientTransform="translate(-3129.36 22435.48) rotate(-180)" gradientUnits="userSpaceOnUse"><stop offset=".2" stop-color="#ffde59" stop-opacity="0"/><stop offset=".27" stop-color="#ffde59" stop-opacity=".12"/><stop offset=".51" stop-color="#ffde59" stop-opacity=".49"/><stop offset=".7" stop-color="#ffde59" stop-opacity=".77"/><stop offset=".83" stop-color="#ffde59" stop-opacity=".94"/><stop offset=".9" stop-color="#ffde59"/></linearGradient><linearGradient id="linear-gradient-2" x1="952.23" y1="22208.5" x2="1294.09" y2="22208.5" gradientTransform="translate(1542.3 22435.48) scale(1 -1)" gradientUnits="userSpaceOnUse"><stop offset=".2" stop-color="#fff"/><stop offset=".33" stop-color="#fff7d9"/><stop offset=".58" stop-color="#ffe994"/><stop offset=".76" stop-color="#ffe169"/><stop offset=".85" stop-color="#ffde59"/></linearGradient></defs><path class="cls-2" d="M130.7,737.31v-163.1h34.95v163.1h-34.95ZM144.91,674.17v-30.06h106.48v30.06h-106.48ZM147.24,605.67v-31.46h113.94v31.46h-113.94Z"/><path class="cls-2" d="M388.56,739.64c-14.14,0-27.07-2.14-38.79-6.41-11.73-4.27-21.94-10.21-30.64-17.83-8.7-7.61-15.38-16.54-20.04-26.79-4.66-10.25-6.99-21.36-6.99-33.32s2.37-23.07,7.11-33.32c4.74-10.25,11.42-19.18,20.04-26.79,8.62-7.61,18.79-13.55,30.52-17.82,11.73-4.27,24.58-6.41,38.56-6.41s27.06,2.14,38.79,6.41c11.73,4.27,21.9,10.22,30.52,17.82,8.62,7.61,15.3,16.54,20.04,26.79,4.74,10.25,7.11,21.36,7.11,33.32s-2.37,23.07-7.11,33.32c-4.74,10.25-11.42,19.19-20.04,26.79-8.62,7.61-18.8,13.55-30.52,17.83-11.73,4.27-24.58,6.41-38.56,6.41ZM388.33,706.56c9.01,0,17.2-1.32,24.58-3.96,7.38-2.64,13.78-6.25,19.22-10.83,5.44-4.58,9.67-9.98,12.7-16.19,3.03-6.21,4.54-12.97,4.54-20.27s-1.51-14.06-4.54-20.27c-3.03-6.21-7.26-11.61-12.7-16.19-5.44-4.58-11.85-8.19-19.22-10.83-7.38-2.64-15.57-3.96-24.58-3.96s-16.97,1.32-24.35,3.96c-7.38,2.64-13.83,6.21-19.34,10.72-5.52,4.51-9.71,9.87-12.58,16.08-2.88,6.21-4.31,13.05-4.31,20.5s1.43,14.1,4.31,20.39c2.87,6.29,7.07,11.69,12.58,16.19,5.51,4.51,11.96,8.08,19.34,10.72,7.38,2.64,15.49,3.96,24.35,3.96Z"/><path class="cls-2" d="M530.01,737.31v-163.1h88.54c11.49,0,21.55,2.21,30.17,6.64,8.62,4.43,15.34,10.48,20.15,18.17,4.81,7.69,7.22,16.58,7.22,26.68s-2.6,19.42-7.81,27.49c-5.21,8.08-12.23,14.53-21.09,19.34-8.85,4.82-18.72,7.22-29.59,7.22h-53.82v57.55h-33.79ZM563.8,651.34h50.56c4.81,0,9.2-1.05,13.16-3.15,3.96-2.1,7.11-4.97,9.44-8.62,2.33-3.65,3.49-7.73,3.49-12.23s-1.21-8.7-3.61-12.12c-2.41-3.42-5.75-6.06-10.02-7.92-4.27-1.86-8.89-2.8-13.86-2.8h-49.16v46.83ZM643.72,737.31l-51.49-73.63,36.58-5.83,56.15,79.69-41.24-.23Z"/><path class="cls-2" d="M840.6,737.31v-163.1h90.17c10.25,0,19.57,2.29,27.96,6.87,8.39,4.58,15.03,10.83,19.92,18.76,4.89,7.92,7.34,16.86,7.34,26.8s-2.64,19.8-7.92,28.19c-5.28,8.39-12.31,14.99-21.09,19.81-8.78,4.82-18.68,7.22-29.71,7.22h-51.73v55.45h-34.95ZM875.08,650.41h47.07c4.97,0,9.51-1.01,13.63-3.03,4.11-2.02,7.38-4.85,9.79-8.5,2.41-3.65,3.61-7.65,3.61-12s-1.21-7.84-3.61-10.95c-2.41-3.11-5.67-5.59-9.79-7.46-4.12-1.86-8.66-2.8-13.63-2.8h-47.07v44.74Z"/><path class="cls-2" d="M1028,737.31v-163.1h90.17c10.25,0,19.57,2.29,27.96,6.87,8.39,4.58,15.03,10.83,19.92,18.76,4.89,7.92,7.34,16.86,7.34,26.8s-2.64,19.8-7.92,28.19c-5.28,8.39-12.31,14.99-21.09,19.81-8.78,4.82-18.68,7.22-29.71,7.22h-51.73v55.45h-34.95ZM1062.48,650.41h47.07c4.97,0,9.51-1.01,13.63-3.03,4.11-2.02,7.38-4.85,9.79-8.5,2.41-3.65,3.61-7.65,3.61-12s-1.21-7.84-3.61-10.95c-2.41-3.11-5.67-5.59-9.79-7.46-4.12-1.86-8.66-2.8-13.63-2.8h-47.07v44.74Z"/><path class="cls-2" d="M1284.39,739.64c-12.12,0-23.11-1.21-32.97-3.61-9.87-2.41-18.87-5.83-27.03-10.25-8.16-4.43-15.49-9.75-22.02-15.96l18.64-27.26c10.56,9.79,21.32,16.78,32.27,20.97,10.95,4.19,22.02,6.29,33.2,6.29,5.74,0,11.34-.66,16.78-1.98,5.44-1.32,9.98-3.42,13.63-6.29,3.65-2.87,5.48-6.64,5.48-11.3,0-2.8-.9-5.2-2.68-7.22-1.79-2.02-4.19-3.73-7.22-5.13s-6.56-2.52-10.6-3.38c-4.04-.85-8.19-1.55-12.47-2.1-4.27-.54-8.5-1.12-12.7-1.75-10.41-1.4-19.61-3.41-27.61-6.06-8-2.64-14.84-5.9-20.5-9.79-5.67-3.88-10.02-8.66-13.05-14.33-3.03-5.67-4.54-12.08-4.54-19.22,0-7.77,1.86-14.8,5.59-21.09s8.97-11.61,15.73-15.96c6.76-4.35,14.52-7.65,23.3-9.9,8.77-2.25,18.21-3.38,28.31-3.38,10.87,0,20.7,1.09,29.47,3.26,8.77,2.18,16.54,5.21,23.3,9.09,6.76,3.88,12.31,8.39,16.66,13.51l-19.34,24c-4.19-4.35-9.05-7.96-14.56-10.83-5.52-2.87-11.34-5.09-17.47-6.64-6.14-1.55-12.39-2.33-18.76-2.33-6.84,0-12.9.66-18.17,1.98-5.28,1.32-9.48,3.3-12.58,5.94-3.11,2.64-4.66,5.82-4.66,9.55,0,3.42,1.16,6.29,3.49,8.62s5.44,4.19,9.32,5.59c3.88,1.4,8.35,2.6,13.4,3.61,5.05,1.01,10.29,1.83,15.73,2.45,9.01,1.4,17.67,3.03,25.98,4.89,8.31,1.86,15.73,4.47,22.25,7.81,6.52,3.34,11.65,7.81,15.38,13.4,3.73,5.59,5.59,12.66,5.59,21.2,0,11.18-3.19,20.78-9.55,28.78-6.37,8-15.15,14.14-26.33,18.41s-24.08,6.41-38.68,6.41Z"/><path class="cls-2" d="M1511.33,737.31v-163.1h85.98c13.2,0,24.31,1.59,33.32,4.78,9.01,3.19,15.8,7.81,20.39,13.86,4.58,6.06,6.87,13.28,6.87,21.67,0,9.17-2.6,16.86-7.81,23.07-5.21,6.21-13.01,10.64-23.42,13.28l.93-4.66c6.99,1.55,13.47,4.12,19.46,7.69,5.98,3.58,10.72,8.24,14.21,13.98,3.5,5.75,5.24,12.58,5.24,20.5,0,9.32-1.79,17.12-5.36,23.42-3.57,6.29-8.5,11.3-14.8,15.03-6.29,3.73-13.24,6.41-20.85,8.04-7.61,1.63-15.3,2.45-23.07,2.45h-91.1ZM1544.88,639.45h52.66c4.81,0,9.2-.74,13.16-2.21,3.96-1.47,7.03-3.53,9.2-6.17,2.17-2.64,3.26-5.83,3.26-9.55,0-6.06-2.56-10.41-7.69-13.05-5.13-2.64-11.81-3.96-20.04-3.96h-50.56v34.95ZM1544.88,707.02h57.78c5.75,0,10.83-.74,15.26-2.21,4.43-1.47,7.84-3.73,10.25-6.76,2.41-3.03,3.61-6.72,3.61-11.07,0-4.81-1.51-8.66-4.54-11.53-3.03-2.87-6.87-4.97-11.53-6.29-4.66-1.32-9.4-1.98-14.21-1.98h-56.62v39.84Z"/><path class="cls-2" d="M1797.15,739.64c-14.14,0-27.07-2.14-38.79-6.41-11.73-4.27-21.94-10.21-30.64-17.83-8.7-7.61-15.38-16.54-20.04-26.79-4.66-10.25-6.99-21.36-6.99-33.32s2.37-23.07,7.11-33.32c4.74-10.25,11.42-19.18,20.04-26.79,8.62-7.61,18.79-13.55,30.52-17.82,11.73-4.27,24.58-6.41,38.56-6.41s27.06,2.14,38.79,6.41c11.73,4.27,21.9,10.22,30.52,17.82,8.62,7.61,15.3,16.54,20.04,26.79,4.74,10.25,7.11,21.36,7.11,33.32s-2.37,23.07-7.11,33.32c-4.74,10.25-11.42,19.19-20.04,26.79-8.62,7.61-18.8,13.55-30.52,17.83-11.73,4.27-24.58,6.41-38.56,6.41ZM1796.91,706.56c9.01,0,17.2-1.32,24.58-3.96,7.38-2.64,13.78-6.25,19.22-10.83,5.44-4.58,9.67-9.98,12.7-16.19,3.03-6.21,4.54-12.97,4.54-20.27s-1.51-14.06-4.54-20.27c-3.03-6.21-7.26-11.61-12.7-16.19-5.44-4.58-11.85-8.19-19.22-10.83-7.38-2.64-15.57-3.96-24.58-3.96s-16.97,1.32-24.35,3.96c-7.38,2.64-13.83,6.21-19.34,10.72-5.52,4.51-9.71,9.87-12.58,16.08-2.88,6.21-4.31,13.05-4.31,20.5s1.43,14.1,4.31,20.39c2.87,6.29,7.07,11.69,12.58,16.19,5.51,4.51,11.96,8.08,19.34,10.72,7.38,2.64,15.49,3.96,24.35,3.96Z"/><path class="cls-2" d="M1908.08,737.31l75.96-163.1h34.02l75.49,163.1h-36.58l-45.43-97.86c-1.4-3.11-2.8-6.25-4.19-9.44-1.4-3.18-2.72-6.41-3.96-9.67-1.25-3.26-2.45-6.48-3.61-9.67-1.17-3.18-2.21-6.41-3.15-9.67h7.69c-.93,3.42-2.02,6.76-3.26,10.02-1.25,3.26-2.53,6.49-3.84,9.67-1.32,3.19-2.68,6.37-4.08,9.55-1.4,3.19-2.88,6.49-4.43,9.9l-45.2,97.16h-35.42ZM1942.79,704.69l11.88-27.96h91.1l6.76,27.96h-109.74Z"/><path class="cls-2" d="M2128.38,737.31v-163.1h88.54c11.49,0,21.55,2.21,30.17,6.64,8.62,4.43,15.34,10.48,20.15,18.17,4.81,7.69,7.22,16.58,7.22,26.68s-2.6,19.42-7.81,27.49c-5.21,8.08-12.23,14.53-21.09,19.34-8.85,4.82-18.72,7.22-29.59,7.22h-53.82v57.55h-33.78ZM2162.16,651.34h50.56c4.81,0,9.2-1.05,13.16-3.15s7.11-4.97,9.44-8.62c2.33-3.65,3.5-7.73,3.5-12.23s-1.21-8.7-3.61-12.12c-2.41-3.42-5.75-6.06-10.02-7.92-4.27-1.86-8.89-2.8-13.86-2.8h-49.16v46.83ZM2242.08,737.31l-51.49-73.63,36.58-5.83,56.15,79.69-41.24-.23Z"/><path class="cls-2" d="M2326.45,737.31v-163.1h80.39c14.29,0,27.03,2.1,38.21,6.29,11.18,4.19,20.66,10.06,28.43,17.59,7.77,7.54,13.67,16.23,17.71,26.1,4.04,9.87,6.06,20.39,6.06,31.57s-2.02,21.94-6.06,31.8c-4.04,9.87-9.94,18.52-17.71,25.98-7.77,7.46-17.24,13.28-28.43,17.47-11.18,4.19-23.92,6.29-38.21,6.29h-80.39ZM2361.4,711.92l-3.73-6.06h48c9.47,0,17.67-1.32,24.58-3.96,6.91-2.64,12.66-6.25,17.24-10.83,4.58-4.58,7.96-9.9,10.14-15.96,2.17-6.06,3.26-12.5,3.26-19.34s-1.09-13.24-3.26-19.22c-2.18-5.98-5.56-11.26-10.14-15.84-4.58-4.58-10.33-8.23-17.24-10.95-6.91-2.72-15.11-4.08-24.58-4.08h-48.7l4.43-5.59v111.84Z"/><rect class="cls-3" x="0" y="187.6" width="1778.23" height="78.76"/><rect class="cls-2" x="2146.61" y="187.6" width="347.91" height="78.76"/><rect class="cls-4" x="1778.23" y="187.6" width="195.35" height="78.76"/><path class="cls-2" d="M881.18,450.24c-38.45,0-73.6-5.69-105.43-17.05-31.84-11.37-59.33-27.18-82.48-47.44-23.16-20.25-41.14-44.03-53.95-71.32-12.82-27.29-19.23-57.05-19.23-89.3s6.41-62.02,19.23-89.3c12.81-27.29,30.9-51.06,54.26-71.32,23.35-20.25,50.85-36.06,82.48-47.44,31.63-11.37,66.45-17.05,104.5-17.05s72.97,5.69,104.81,17.05c31.83,11.38,59.32,27.19,82.48,47.44,23.15,20.26,41.13,44.03,53.95,71.32,12.81,27.29,19.23,57.05,19.23,89.3s-6.42,62.02-19.23,89.3c-12.82,27.29-30.8,51.07-53.95,71.32-23.16,20.26-50.65,36.07-82.48,47.44-31.84,11.37-66.57,17.05-104.19,17.05ZM880.56,351.01c22.33,0,42.89-3.2,61.71-9.61,18.81-6.41,35.04-15.29,48.68-26.67,13.64-11.37,24.19-24.7,31.63-40,7.44-15.29,11.16-31.83,11.16-49.61s-3.72-34.31-11.16-49.61c-7.44-15.29-17.98-28.62-31.63-40-13.64-11.37-29.87-20.25-48.68-26.67-18.82-6.4-39.38-9.61-61.71-9.61s-42.79,3.21-61.4,9.61c-18.6,6.42-34.84,15.2-48.68,26.36-13.86,11.16-24.4,24.4-31.63,39.69-7.24,15.3-10.85,32.04-10.85,50.23s3.61,34.42,10.85,49.92c7.23,15.5,17.77,28.84,31.63,40,13.85,11.16,30.08,19.95,48.68,26.36,18.6,6.41,39.07,9.61,61.4,9.61Z"/><path class="cls-2" d="M2393.23,225.11c0,44.46-35.53,125.9-159.18,125.9-71.07,0-152.56-39.6-152.56-125.9s85.28-125.89,152.56-125.89c12.39,0,65.52.18,108.57,34.8l80.63-67.84c-.63-.57-1.27-1.13-1.91-1.69C2356.41,7.72,2276.86,0,2234.05,0c-140.82,0-260.47,87.7-260.47,225.11,0,123.88,102.74,225.12,261.09,225.12,229.6,0,259.85-192.87,259.85-225.12h-101.29Z"/><path class="cls-2" d="M1251.09,444.04V9.92h231.94c37.89,0,164.96,8.37,164.96,109.61,0,16.73-1.94,81.09-82.48,100.31l1.86-11.78c3.3.73,103.57,11.93,103.57,104.5,0,124.64-137.01,131.47-174.27,131.47h-245.58ZM1350.32,187.6h129.61c4.72,0,64.5-2.84,64.5-46.36,0-35.48-44.38-43.26-68.22-43.26h-125.89v89.61ZM1350.32,355.97h146.98c42.4,0,70.08-16.67,70.08-48.37,0-40.85-52.88-41.24-73.18-41.24h-143.88v89.61Z"/><path class="cls-2" d="M229.46,187.6h129.61c18.07,0,64.5-2.74,64.5-46.36,0-35.48-39.04-43.26-68.22-43.26h-125.89v89.61ZM373.34,266.36h-143.88v177.68h-99.23V9.92h231.94c96.89,0,164.96,43.62,164.96,124.61,0,89.88-61.91,131.82-153.8,131.82Z"/><polygon class="cls-2" points="430.3 444.04 293.24 248.06 400.01 232.56 549.46 444.04 430.3 444.04"/><path class="cls-3" d="M2934.06,187.44v79.08c-92.28,2.79-179.61,43.65-240.93,113.07l-56.93,64.45-60.28-50.72,58.18-65.87c37.75-42.75,83.49-76.72,134-100.47-50.51-23.75-96.25-57.72-134-100.47l-58.18-65.86,60.28-50.72,56.93,64.44c61.32,69.42,148.65,110.28,240.93,113.07Z"/><rect class="cls-1" x="2494.52" y="187.6" width="341.87" height="78.76"/></svg>