<?xml version="1.0" encoding="UTF-8"?><svg id="artwork" xmlns="http://www.w3.org/2000/svg" viewBox="0 0 1000 1000"><defs><style>.cls-1{fill:#0060e0;}</style></defs><path class="cls-1" d="M545.3,536.67l-2.49.91-.43-1.71c3.41-.14,1.88-5.25,5.92-4.29v6.84c-2.22.33-2.17-.07-3.01-1.75Z"/><path class="cls-1" d="M445.77,434.14c-.46-2.97.83-6.06,3.38-7.69l.79,6.29-.74,1.02-3.43.38Z"/><path class="cls-1" d="M860.49,865.69c.22.03.41.06.53.11l-.53-.11Z"/><path class="cls-1" d="M0,2.48v997.52s999.16,0,999.16,0c-1.46-3.38-5.44-1.18-4.24-5.98.28-.27,5.23,1.05,5.08-2.15-.05-.96-3.53-1.48-4.31-2.47-1.02-1.31-.6-3.74-.78-3.92-1.79-1.85-14.59,4.94-17.78,3.4l.98-3.29,2.7-.12c2.58-.27-3.62-6.5-4.25-6.71-1.75-.57-4.18.52-5.87-.93l-1.09-1.47,1.21-5.48c-1.13-1.55-5.74.02-6.4-2.1-1.28-4.08,6.65-1.69,4.26-6-4.45-.64-13.74-1.83-17.31-4.58-1.4-1.08.55-4.74-1.79-6.06l-2.54,3.39c-2.27-1.19-.05-3.05-.78-4.27-1.08-1.8-7.25-1.27-7.83-5.55,2.44-4.7,5.28-6.54,10.72-5.56-.67-4.93-9.2-1.47-12.96-2.73-2.62-2.62-11.96-3.83-13.76-5.79-.54-.58-.88-1.57.1-1.76l3.69-2.21-.05-1.45c-1.72-1.93-3.05-3.25-2.47-6.12.66-3.27,3.3-1.3,4.36-2.67,1.07-1.38.17-9.35-2.63-9.73.89,6.64-11.84,4.63-11.02,1.29.37-1.49,5.48-1.52,5.93-3.85l-14.41-.87c-.62-3.6,1.85-3.14,3.89-4.19.89-.46,1.59.44,1.2-1.78-6.22-3.47-19.06,5.01-16.85-5.89l5.87-1.47-.04-2.9c-1.64-.16-3.5.21-5.09,0,.14.53.3,1.84-.56,1.73-3.63.59-6.82,3.27-10.04,0-1.46-3.92.11-5.87,4.22-5.14,2.5.44,2.35,2.89,6.39,3.42-.38-1.43-1.95-2.44-3.39-2.58l3.29-4.8c-2.99-7.97-4.84-1.83-6.36-1.29-3.26,1.15-7.53-1.91-9.37,2.75l-8.75-1.77-.83-8.99c-3.5-2.33-11.64-1.37-14.43-3.39-2.59-1.88,3.36-2.5,5.41-2.26l-3.71-.74.83-3.91c.25-.19,5.86-.38,6.22-.26,1.56.52,1.54,3.42,3.51,3.33,10.51-3.39-4.5-10.51-9.7-6.85l.84-5.12c-4.23,1.2-5.03-2.77-6.96-3.65-4.24-1.94-5.5,1.18-6.54-6.24-5.26-2.08-7.34,2.66-12.49,2.73-3.85.05-5.47-1.49-7.06-4.79,3.24-1.36,4.96-1.95,8.47-.87l-.08-5.47,2.63-.51-.02-2.52-11.84-3.46c.06-4.49,4.72-2.71,6.81-3.81,1.09-.39.04-2.89-.08-2.98-.66-.51-11.97,2.25-12.66-3.03,1.83-1.84,4.98-1.11,4.23-4.71l-7.2-.82-.47-3.41c-14.24.38,9.86,10.57-1.64,15.33,1.35-5.79-2.85-4.86-4.62-6.8-1.32-1.44.07-6.88-1.69-8.62-3.91-3.87-7.39-.11-8.98-.35-.39-.06-6.7-2.34-6.79-2.7l.06-3.75,5.06.84c-.07-1,.48-2.08.43-3.01-.19-3.8-4-1.37-5.5-3.82l7.1-1.66,1.22,1.87-.54,3.89c4.45,3.51,4.13.83,6.71-.2.89-.36,9.19-2.38,7.99-3.92-3.53-2.36-8.94-1.15-12.48-2.63-.87-.36-.59-1.48-2.98-2.25-7.14-2.3-14.4-.13-21.04-2.75l-.37-2.6c4.58-3.2,7.53,4.36,11.02,2.13,1.98-1.26-.56-2.54-.64-4.09-.35-6.93,2.86-4.69,5.73-6.16,1.02-.52.92-1.11,0-1.74-2.62-1.81-11.37-2.26-14.79-3.72l-1.74-3.52-2.96,4.7c0,1.93,7.39-.23,6.76,3.4-.32,1.86-7.07-.48-8.83,1.2-3.67-2.92.56-6.34.31-9.64-.74-2.2-8.54-1.37-11.05-5.2-1.68-2.57,2.8-6.8.11-8.61-.44-.29-9.7-2.77-10.18-2.56-.57.24-1.11,1.3-1.7,1.74l3.3,2.7-.79,3.71-6.88-3.79-1.15-9.9-7.21-2.56c2.09-3.38,6.78-1.77,10.16-1.69-1.33,6.17,3.41,11.93,8.47,6.4l-8.44-7.69c.67-.87,2.12-1.66,2.41-2.7.92-3.33-9.31-5.49-11.3-2.85l-1.28-3.43c2.9,2.43,7.58-1.35,6.37-4.29l-2.98-.84-.08,3.35-7.94,2.64c-.92-6.17-14.12-.74-12.17-5.01.08-.18,2.45-.02,1.55-2.67-7.64.67-5.72-5.65-6.79-11.11l5.82-.97v-3.18s-6.66-.11-6.66-.11l1.34,2.51c-3.26,5.18-7.68-.69-10.66-2.94,2.83-2.45,4.86-4.92,4.22-8.98-1.7.22-1.12,3.09-2.14,4.27-.86.99-2.94.49-3.36,2.57-5.71-2.69-1.89-9.7-4.58-13.33-1.08-1.46-4.24-1.74-5.92-2.15,1.18-6.05-7.38-7.1-11.59-9.26l-1.39-7.58c-1.91-.68-7.93-1.33-9.16-2.29-1.79-1.4-.19-7.8-6.77-4.71l.85,4.26c-5.04.69-5.12-2.31-7.52-5.56,1.72-3.46,4.17-1.27,6.13-1.57,2.34-.36,12.61-1.91,13.19-3.66,1.9-5.71-11.94-4.78-9.34-13.06-3.66,1.02-8.37-2.72-10.51-2.73-3.88-.02-2.44,3.37-3.41,3.54-2.59.46-4.28-2.64-7.19-.9-.24-.21,3.2-3.32,1.33-6.04l-4.59-.91-.87-5.49c-1.53-1.8-4.54-.54-6.54-2.86-1.67-1.92-4.96-10.18-6.7-12.91-3.85.23-5.79-4.53-6.53-4.94-1.47-.82-4.88.81-6.22-1.9.43-2.46-.47-6.93-.23-8.79.23-1.76,3.17-3.91.27-5.72-3.52,1-1.48,3.33-2.49,6.02l-3.36.85c-1.9-.42.46-6.42-4.54-7.51-4.4-.97-9.24,1.92-13.82.26l-1.16-4.81c-3.69-1.13-6.85-1.09-7.25-5.93.6-.55,8.09,2.46,9.25,3.09,1.97,1.08,4.1,4.1,5.71,4.34,1.63.24,9.24-2.23,8.76-4.43-2.64-.93-6.63-3.02-9.08-3.67-4.76-1.26-6.58,1.55-9.15-5.31-1.98-.51-1.5,4.44-4.99,1.79.55-7.26-11.31-4.02-9.83-9.9.65-2.58,3.15.77,4.62.9,1.76.14,7.29-1.53,9.38-2.17,1.2-.37,1.5.55,1.25-1.72l-7.63-1.71c1.09,8.2-5.41,3.2-4.14-2.18-1.79-2.17-4.91-.67-5.93-1.34-.41-.28-.62-3.02-1.43-4.12-.71-.97-2.15-1.24-2.94-2.16-.8-.92-.73-2.74-1.67-3.44-3.92-2.94-16.53-1.03-18.51-4.4-.97-1.64-.47-4.95-2.17-6.36-2.09-1.72-11.65-3.24-13.63-5.05-3.68-3.38,2.1-5.12,2.14-5.63.03-.42-.88-7.4-1.07-8.28-.56-2.64-1.95-7.94-5.22-6.53-2.5.86-1.71,8.36-3.48,8.45-1.83.09-.45-3.57-.61-4.46-.11-.61-2.82-6.86-3.18-7.08-3.43-2.1-6.34,2.5-7.99,2.1-3.01-5.18-3.23-3.09-6.72-3.64-1.54-.24-2.72-2.4-5.64-.59v-3.41c11.01,2.14,5.69-2.9,6.72-7.13l3.37-1.49c1.04-3.06-3.31-7.72-6.2-6.71-1.93.67-.86,5.54-3.46,5.07-2.01-.36-.59-1.98-.21-2.81,1.82-4.1.76-8.48-4.05-9.99-3.06-.08.01,2.13.3,3.19.4,1.47-.49,6.3-2.39,7.05l-4.12-7.97c.91-3.95,5.56-3.08,3.99-7.72-.97-2.88-8.38.72-8.29-5.26.03-1.89,2.53-3.61,1.27-5.59-1.01-1.38-9.02.12-7.18-5.38.36-1.07,6.37-3.91.94-3.41-8.86.82-3.55,6.64-8.18,6.7-5.02.07-4.88-5.48-10.63-3.01-.31-2.25.29-3.82,2.13-5.12,2.55.96,1.76,3.61,5.5,2.56v-12.39c0-.43-1.8-1.78-2.51-1.26-.19.14-.07,2-1.4,2.43-1.36.44-3.57-.31-4.45.23-.36.22-2.61,7.06-6.07,4.62-3.67-2.59,2.36-6.43,2.84-7.52,1.16-2.66,1.38-7.86,2.26-10.9-2.89-.54-1.43,3.51-3.36,4.73-1.83,1.15-2.46-1.37-3.94-2.06-4.65-2.17-6.48-.82-7.11-7.8-1.52-.02-1.76,4.88-1.59,5.45.36,1.2,2.35,1.1,2.52,1.96.24,1.26-.94,2.91-.73,4.04.23,1.25,3.25,2.44,2.35,4.79-6.85,2.33-6.16-6.6-8.05-10.25-.97-1.86-4-1.44-4.55-3.1-1.39-4.17,2.59-6.44-5.93-6.41.33-5.43-1.63-16.31-6.93-7.61l-8.89-5.99-.27-10.49,5.01-4.42-3.01-7.26c-2.36,1.7-.95,4.16-.51,6.33l-3.29,1.38c2.64,4.69-5.63,7.39-9.08,7.42-3.56.03-7.93-6.36-3.24-7.46l2.56,3.42,2.1-1.33-3.39-8.93,3.89-.79c1.62-3.45-1.44-5.88-4.38-3.56-2.3,1.81-.98,6.47-3.73,7.77.55-3.61-2.85-3.74-4.28-5.53-1.52-1.89-1.99-5.85-3.85-8.09-1.53-1.84-6.34-3.7-6.76-4.29-2.14-3.04,2.66-7.41,3.02-.9,4.27-2.1-.65-7.51-.84-9.87-.13-1.54,1.39-3.28.44-4.68l-7.23-.83c-1.39,6.61,6.54,3.3,5.92,8.54l-12.69.86c-2.44-4.3,2.33-16.56-5.61-12.91-.75.64-2.34,8.35-4.99,4.36-.18-.27-2.53-5.6-2.6-5.92-.27-1.17.91-1.97.93-3,.09-4.94-2.38-4.5,3.38-7.3l1.69-7.73c-6.12-3.27-14.18-3.1-17.82,3.42-2.64-3.11-4.23-5.45-3.76-9.73.27-2.53,2.42-4.55.7-7.26-2.87-1.34-3.22,1.35-3.9,1.57-1.07.34-6.42.84-7.34.14-.47-2.03-1.78-4.86-2.06-6.71-.19-1.26.93-3.08.61-3.52-.2-.28-1.54-.38-2.06-.96-4.37-4.96-3.25-2.15-9.81-2.97l-2.48-8.15c-2.51-.61-4.45,5.33-6.77,3.85-2.4-1.54.72-3.79.73-4.29,0-1.13-3-1.75-3.27-2.74-.2-.72-.61-5.52-.59-6.56.01-.89,1.23-1.91,1.23-3.35,0-2.9-2.79-7.51-2.73-10.87-3.61-2.94-2.26,4.42-5.2,4.96-4.75.87-7.86-4.74-8.36-4.78-.63-.04-1.86,1.54-3.27,1.39-1.38-.15-2.46-1.96-3.66-2.18-.88-.16-2.12.85-2.69.54-1.27-.7-4.24-10.18-4.11-11.47.11-1.04,2.86-2,2.27-4.24l-6.87-2.49-2.46-9.06c-1.88,1.38-1.65,3.49-5.01,2.49.57-3.02-3.05-4.73-3.32-5.6-.45-1.41.11-3.23-.34-4.82-.67-2.37-4.08-4.9-3.19-8.33l-4.14,1.35c1.93,2.91-.51,4.65-.65,6.08-.18,1.75.63,4.15-.27,6.25,1.34-.81,5.65.73,6.34,1.72.57.82.36,2.37.93,3.33,1.84,3.15,3.15,4.25,2.89,8.62l-2.47-.06c.43-2.65-2.35-3.64-3.01-5.09-.61-1.32-.21-3-.89-4.22-1.74-3.11-5.99-1.55-6.3-1.75-.88-.58-1.22-8.16-1.75-9.6-.4-1.08-2.03-.91-2.4-2.03-.52-1.57-1.09-12.15-.94-14.32.11-1.6,1.75-3.95,1.24-4.81-2.08-3.52-3.67,4.29-5.09,4.26l-3.39-5.95c-4.42,5.33,3.83,10.08-2.68,14.43l-3.65-.82-.02-2.51c8.21-.71-.64-12.43-.67-16.83-.01-1.28,1.57-2.13,1.52-4.02-.05-1.91-2-4.29-1.71-6.51-2.76-.9-1.58,3.43-2.64,4.17-4.99-.27-6.63.02-8.24,4.96,3.45,6.3,4.07-2.76,5.39-3.14,3.92-.05,5.07,4.81,1.69,6.82l-2.96-2.55c-1.32,2.67,2.8,5.08,2.53,6.4-.87,4.28-7.81-3.93-8.5-5.08-1.02-1.73-.84-3.68-1.62-5-1.32-2.24-6.74-2.96-3.92-9.2l3.86-2.06c-4.12-2.4-2.48-5.87-4.67-8.98-7.81,6.89-5.6-3.94-7.3-5.03-.85-.54-3.29.44-5.46-.91-2.79-1.74-1.56-5.57-2.87-6.52l-10.2-.37c-.99-1.34,4.44-4.38,1.26-5.11-4.49-1.03-2.02,3.69-2.08,4.63-.02.38-4.42,2.38-2.58,6.48h-2.53s1.67-4.71,1.67-4.71c-7.01-1.89-5.49-8.68-9.4-12.74-1.23-1.28-2.71-1.09-3.31-1.98-1.24-1.84-1.22-6.45-1.9-7.72-.3-.56-2.06-.62-2.8-2.72-.3-.86-1.17-5.74-1.13-6.52.12-2.27,4.02-4.32,1.59-8.06l-5.05,8.15-9.35.03c-1.58-.97-1.93-5.79-2.71-6.31-.79-.52-2.69.25-3.67-.98-1.93-2.43-1.04-14.89-4.2-15.14-1.2-.1-4.18,1.91-6.36.58l-.42,3.42c-3.13-2.66-3.01-7.31-2.97-11.11h-2.54s0,3.43,0,3.43c-2.95,3.03-6.41-10.81-5.95-13.27.43-2.27,7.64-6.11,5.95-8.1-4.32,1.87-7.86-.74-12.19.8l-2.75-4.15-5.39.79c.39-3.62-6.95-11.56-2.36-14.35,1.35-.82,3.85,1.02,3.2-1.88-4.36-.07-6.39-3.65-6.79-7.7-4.96,3.99-1.64,7.65-1.2,11.95.75,7.38-4.59-.17-5.57.87l-2.12,6.82c-1.67-.96-.87-3.86-2.09-4.73-.9-.64-2.8.09-3.51-.88-1.95-2.64.76-9.67-4.14-11.03,1.83-3.39,5.59-3.72,6.65.19.27,1.01-1.56,8.94,2.69,6.7,2.62-1.38,3.7-13.53,3.36-16.72-2.94,1.28-1.93,6.54-5.45,6.77-5.94.38-3.57-5.54-6.82-8.45-4.95,2.75-5.61,4.35-5.08,9.8.16,1.61,3.37,3.79-2.13,3.85.82-2.56-1.06-6.1-.86-8.11.19-1.91,2.6-2.64,2.6-4.28,0-1.5-1.74-2.08-2.12-3.03-.71-1.77-.57-7.02-4.17-5.89-1.47.46-1.7,4.46-4.75,3.37l-2.19-7.59c-1.89.44-3.29,1.49-4.61-.55,3.04-4.21,1.1-5.06-2.11-8.08-1.35,1.13-.67,3.17-2.96,2.55-.6-3.06-1.04-7.93-2.73-10.5-.91-1.38-2.73-1.81-3.08-2.87-.37-1.11.5-8.04-2.7-5.88-3.46,2.34-1.88,8.76,1.68,10.34-.42,2.37-1.57,4.33-4.19,3.79-2.55-3.49-.6-14.21-3.4-15.88-.83-.49-8,1.49-10.16-2.07l-.86,4.27c-1.97,1.74-3.57-5.41-3.04-6.88l4.73-2.1c-1.95-.79-2.49-4.59-3.35-5.2-.27-.19-5.01.03-6.35-1.21-3.18,1.67,1.83,7.75-2.57,7.68-2.42-.04-.02-5.33-.44-5.93l-5.92-.89.83-3.01c9.58-1,12.76-4.59,4.36-11.11-4.06-.77-3.84,7.84-6.04,5.57,2.15-2.76,1.03-4.61-.12-7.56L5.18,0c-1.95,3.25,2.39,4.74,4.13,7.18C4.31,10.5,4.06,3.41,0,2.48ZM984.14,994.23c.44-.44,7.02-4.01,7.4-3.62l-.8,6.44c-2.23,1.18-10.13.67-6.6-2.81ZM900.86,902.55c3.11-.83,2.53,1.75,4.16,3.08,1.11.91,2.79.99,3.24,1.41.97.91.58,3.05,1.27,3.87.63.76,2.55.54,3.03,1.22,1.06,1.48.38,6.9,4.38,7.94-6.68,8.67-4.03-3.54-5.25-4.49-.72-.56-2.47-.4-3.54-1.13-1.09-.75-1.37-2.28-2.26-2.86-1.09-.71-2.69-.33-3.78-1.32-1.65-1.51-1.25-5.59-1.25-7.71ZM844.94,859.39l3.78-2.14c.74.15,4.27,10.29,1.71,10.24-1.48-.03-2.92-7.4-5.49-8.1ZM681.37,694.43c.65-2.95,8.13-.38,7.62,2.97-1.73.48-8.2-.34-7.62-2.97ZM655.19,654.58c-.27-2.04-.62-4.55,1.19-5.9l8.03,2.58c-1.74,5.16-4.71,4.73-9.22,3.32ZM641.54,653.82l5.11.4,10.98,5.57c-2.41.66-5.43,1.49-7.89.71-1.81-.57-1.8-2.68-2.85-3.32-1.68-1.03-5.6-.12-5.35-3.36ZM635.19,641.85c3-.46,3.45,4.8,2.1,6.83l-2.17-1.28c1.07-1.24-2.31-5.18.08-5.55ZM602.55,605.1c2.62-.63,1.72,2.8,3.98,3.32,1.09.25,2.62-.97,2.79-.76v2.56s-3.38-.85-3.38-.85l.84,5.12c-3.36-.17-3.21-6.87-4.23-9.39ZM488.15,501.67l6.65.12.97,4.14c-.82.81-8.26-1.52-7.62-4.26ZM477.12,482.85l1.71-7.68,2.99.83c-1.59,4.98,1.93,3.5,2.75,4.47.51.6.28,4.28,2.51,5.36l-1.98,2.94c-4.38.08-1.7-6.73-7.99-5.92ZM444.08,456.34c-.24-2.8,2.91-3.32,4.74-1.77.51.43,3.21,8.32,2.87,8.63-5.82,1.61-2.63-6.06-7.61-6.86ZM342.38,349.94l6.71.36.92-5.06c1.44,1.49,8.65,2.89,4.86,4.48-3.39,1.43-5.86.57-5.76,6.23.06,3.43,6.53-.07,5.97,3.82-7.47,1.95-8.15-5.66-12.7-9.83ZM311.02,317.04c3.06-.32,5.44-.15,7.24,2.59l-1.33,5.1c-2.49.56-1.64-2.46-2.96-4.28-1.21-1.66-3.45-1.03-2.96-3.41ZM281.37,294.82c5.83-1.94,8.8-1.81,13.54,2.13.04,1.68-8.05,3.26-8.42,2.98-.2-.15-.42-2.59-1.28-3.44-1.44-1.42-3.77.04-3.84-1.67ZM267.8,266.61c2.89-.29,3.83,2.99,6.76,3.84-3.26,3.24-7.59.55-6.76-3.84ZM203.4,198.23c6.81.07,2.71,11.8-.05,8.04-1.49-2.76.04-5.19.05-8.04ZM188.17,192.59l.82-4.62,5.06,2.99-3.91,2.91-1.98-1.27ZM100.85,102.49c2.59-.07,5.89,5.62,2.95,6.82-3.36,1.38-1.79-5.11-2.95-6.82Z"/><path class="cls-1" d="M65.55,51.95c-5.18-2.15.32-3.27.55-5.87l-5.07.85.84-6.84c-1.76-.18-7.05.83-7.57-1.35-.25-1.04,1.17-4.7,2.9-4.68.59,0,7.39,4.71,8.08,5.58,1.52,1.91,4.42,8.38,3.17,10.53l-2.9,1.78Z"/><path class="cls-1" d="M321.2,310.2c.42-4.05-3.28-6.19-1.71-10.25l-11.86,1.7c-.75-4.55.64-9.16,5.9-8.15,3.87,3.92,8.92,4.78,9.36,11.16.14,2,.45,4.88-1.69,5.54Z"/><path class="cls-1" d="M722.08,721.73c-1.82-1.73-4.9-2.14-4.28-5.51,4.79-.21,16.52-2.51,11.02,5.5l3.38,3.03c-7.16,2.52-6.37.54-10.13-3.02Z"/><path class="cls-1" d="M515.53,514.39c-3.3.9-3.17-6.2-7.89-3.33,1.69-7.89,4.44-3.83,8.19-3.62,1.19.07,8.85-3.73,9.59-.21.48,2.28-8.74,4.24-9.89,7.16Z"/><path class="cls-1" d="M150.12,145.06c-.46-.86,1.42-2.85.38-4.16l-5.4-2.92,2.79-5.57,2.1.54c-.67,8.5,9.55,5.61,5.9,14.81-1.35,1.12-5.32-1.86-5.77-2.69Z"/><path class="cls-1" d="M692.12,683.78c-.41-.25-3.44-4.55-3.55-5.06-.32-1.47,1.18-3.68.05-5.29-.64-.9-4.61-1.19-4.71-4.22,6.34-1.65,6.49,7.34,10.19,10.65l8.44,3.01c-3.23,1.21-7.04,2.92-10.42.91Z"/><path class="cls-1" d="M425.81,417.02c-2.25.15-4.29-1.87-6.75.79-3.75-3.13-1.5-6.89.86-10.15l1.47,6.62c6.11,2.84,4.8-5.26,8.26-7.49-.84,3.71,1.7,5.45,2.55,8.54-2.41-.66-4.51,1.56-6.39,1.69Z"/><path class="cls-1" d="M431.74,425.64c-2.19-2.54,4.36-5.79,5.59-4.8,1.09,5.34,5.54,7.2,4.2,13.3-4.33-1.53-4.41-7.64-9.79-8.5Z"/><path class="cls-1" d="M954.37,951.57c-2.11-6.31,8.96-7.16,8.32-.33-2.33.56-6.88,4.65-8.32.33Z"/><path class="cls-1" d="M986.4,975.57c-1.17.81-.03,3.23-1.63,3.05.14-2.17-1.66-2.14-3.33-2.63l.89-4.95c2.98-.3,8.24.13,7.53,4.16-1.03.05-2.63-.2-3.45.37Z"/><path class="cls-1" d="M933.07,929.9l1.87-2.32,1.78-.12c1.84.7,2.49,3.97,5.31,1.67.97-.79.69-2.75,2.04-2.63l.71,4.62c-3.62,5-7.12-1.02-11.71-1.22Z"/><path class="cls-1" d="M837.3,837.59l.11-2.45c13.3-8.4,12.9,1.99-.11,2.45Z"/><path class="cls-1" d="M977.13,974.36h-3.38s.38-6.88.38-6.88c1.36-1.85,6.35-1.76,6.37.46,0,.8-5.43,2.62-3.38,6.42Z"/><path class="cls-1" d="M931.54,924.95c-.67,1.18.66,3.4-1.01,3.24l-.73-5.85c4.14-2.1,8.09-4.7,10.89.72-2.31-.59-7.87-.35-9.15,1.89Z"/><path class="cls-1" d="M533.91,525.61l6.78-.87v5.99c-3.49.38-6.54-1.36-6.78-5.12Z"/><path class="cls-1" d="M34.78,22.62l5.04-6.47c.25,4.28-.95,13.57-5.04,6.47Z"/><path class="cls-1" d="M554.25,549.53c-1.57-4.31,6.32-4.31,6.77-2.12.58,2.81-5.36,2.17-6.77,2.12Z"/><path class="cls-1" d="M942.39,947v-3.41s7.63.85,7.63.85v3.41c-3.14-1.43-4.11-1.93-7.63-.85Z"/></svg>