<?xml version="1.0" encoding="UTF-8"?><svg id="artwork" xmlns="http://www.w3.org/2000/svg" viewBox="0 0 1000 1000"><defs><style>.cls-1{fill:#004aad;}</style></defs><path class="cls-1" d="M1.7,929.66l1.93,13.07,7.23,3.56c.5-5.08,2.49-10.7,2.55-15.76.02-1.62.79-5.61-2.53-4.18-5.53,2.37,2.91,9.72-4.18,8.31,2.7-6.59-4.66-10.42-5.03-14.17-.4-4.03.15-15.43-.04-21.55-1.32-41.09,1.84-82.41,1.84-123.22,0-7.57-2.75-14.81-1.75-22.46l3.32,11.64c3.76,1.2,4.6-2.67,4.44-5.52-.44-7.64-7-14.33-7.86-23.51-2.21-23.33-2.66-80.51.04-103.32.75-6.39,11.02-27.61,5.08-31.69l-5.02.97-.02-163.93,5.11,1.93c-.84,8.33-5.35,14.62-3.42,23.85,1.85-.46,4.13-2.76,4.64-4.49.31-1.05,2.21-18.62,2.09-19.59-.87-6.64-6.29-2.36-6.66-2.6-2.2-1.45-2.68-46.5-1.84-52.45,1.6-11.32,5-24,3.33-36.44-2.83-21.07-3.97-43.58-3.33-65.08.12-4.08,3.88-6.31,3.52-9.81-.11-1.01-3.13-.07-3.56-3.3-2.52-19.24-2.11-78.63.02-98.42,1.07-9.94,7.47-16.59.03-28.09L1.7,1.03l6.64.02-3.35,2.5,4.19,12.47.82-8.35,32.24,1.45,3.66-8.2c12.41,1.49,27.97-1.67,39.92,0,5.07.71,15.81,5.68,21.41,5.14,1.43-.14,1.36-3.38,2.59-4.2,1.98-1.32,34.52-1.49,39.21-.9,24.13,3.03,44.71.44,69.92-.01,4.58-.08,9.48,1.84,14.91,1.84,14.53,0,30.67-3.56,45.76-1.75,1.25,4.75-22.96,1.83-16.62,6.63l36.6.85-6.65-7.5h68.23c.39,0,.75,4.81,4.04,6.77,6.86,4.09,17.1,1.01,22.58-4.28l-10.8-2.5c73.14-.04,146.3-.38,219.39,1.04,6.56.13,14.82-2.1,22.01-1.13,9.01,1.21,9.48,10.13,23.11,0l340.45.98c2.32,7.52,11.73,3.02,18.28,4.11v993.52H1.7l-.02-13.32c17.09-.38.02-7.49.02-8.31v-48.26Z"/></svg>