<?xml version="1.0" encoding="UTF-8"?><svg id="artwork" xmlns="http://www.w3.org/2000/svg" viewBox="0 0 1000 1000"><defs><style>.cls-1{fill:#002f6e;}</style></defs><path class="cls-1" d="M985.98,173.6c-3.76,21.81-10.14,62.85-17.79,82.18-1.66,4.19-3.86,3.99-6.59,6.74l3.04,6.16c-23.43,82.45-56.28,158.87-98.02,233.34-10.01,3.61-5.04,5.35-7.65,12.79-3.88,11.02-28.01,43.94-36.08,55.57-8.91,12.84-17.65,24.84-27.36,37.62-5.14,6.78-18.25,25.09-23.9,29.41-4.12,3.15-9.67,3.1-11.34,4.47-3.43,2.83-.09,8.54-1.2,11.23-.56,1.37-17.26,18.95-20,21.78-5.45,5.64-9.02,6.51-13.35,9.92-4.58,3.61-14.3,18.94-19.15,24.19-12.8,13.87-37.67,38.54-52.54,49.17-3.18,2.27-7.26,2.23-7.56,2.49-1.75,1.58-1.69,5.15-4.04,7.5-3.44,3.44-34.98,28.68-38.32,30.15-3.42,1.5-4.26.6-7.55-.23.17,2.85.28,5.13-1.67,7.52-.91,1.11-22.07,16.16-23.4,16.7-3.66,1.45-6.07-2.02-9.13-1.92-1.66.06-15.01,7.07-12.45,9.37l7.51,1.68c-9.71,4.82-21.78,16.82-31.39,20.43-3.8,1.43-5.82-.3-9.45-.46,1.81,10.09-11.17,10.85-17.53,16.3l-6.42-4.51-9.39,4.9,3.25,5.82c-.07,1.96-18.96,11.4-22.09,12.84-2.19,1.01-5.65.02-9.64,1.97-5.59,2.73-7.68,8.99-18.18,6.02-.05,1.98,2.18,3.91.12,5.8-4.19,3.85-27.07,13.08-33.97,16.15-47.5,21.1-103.47,40.71-152.39,52.88-13.65,3.4-28.12,8.1-42,5.2l-1.06,5.02-94.97,15c-7.91-4.85-6.04-2.17-13.63-.55-24.62,5.24-57.45,6.19-82.93,5.55-5.25-.13-10.46-1.26-15.76-.92V0s999.83,0,999.83,0c1.19,58.15-4,116.36-13.86,173.6Z"/></svg>