<?xml version="1.0" encoding="UTF-8"?><svg id="artwork" xmlns="http://www.w3.org/2000/svg" viewBox="0 0 1000 1000"><defs><style>.cls-1{fill:#f2c200;}</style></defs><path class="cls-1" d="M997.48,496.13l2.52-.42c-1.09-2.94-4.83-1.88-4.98-2.13-.27-.46.38-1.92-.54-2.55-2.12-1.47-3.27-1.86-5.93-3.96-3.83-3.01-30.53-23.38-32.54-23.45-.85-.03-2.68,1.07-2.97.75l.74-3.24-38.35-28.08,63.61-88.99c-11.08-4.17-22.97-8.97-34.39-12.22-5.01-1.43-5.16-.63-10.33-3.38-5.33-2.83-5.43,3.39-10.9,2.92-4.45-2.23-9.65-6.84-14.06-8.6-1.69-.67-3.76-.14-5.01-.86-1.16-.67-1.04-3.23-3.08-4.45-3.04-1.82-8.38-1.85-11.36-2.89-4.82-1.68-10.14-5.31-15.75-5.63l31.04-96.92c-3.43-.34-7.68.65-10.95-.38-3-.94-3.23-4.63-6.38-5.3-4.66.59-7.24,5.73-12.03,4.83-.44-1.11,2.62-3.77,3.08-4,1.6-.81,3.54-1,5.31-1.02l-1.41-2.53c-4.73-.95-10.65,1.15-14.93.91-5.37-.3-9.72-5.35-10.56,4.94l-2.8.07-2.74-5.93c-4.21.1-23.09-2.32-25.05.03-.76.91-.72,2.96-1.35,4.09-4.37,2.51-6.09-4.91-7.03-4.91h-21.39l-1.59-105.8-5.95-2.83-2.93,5.66c-1.73.05-4.02-3.17-4.3-3.18-.71-.02-13.17,3.79-13.62,4.34-.42.51,0,2.29-.53,3.22l-.86.79c-3.87-4.15-6.81-.86-11.32.03-.21,1.42,1.95.83,2.93.84,6.12.05,15.7-2.49,10.47,7.5-2.57.63-1.97-2.51-2.6-4.07-.89-.72-10.86-.68-12.87-.96-1.28-.18-2.3-1.62-3.4-1.64-1.38-.02-2.45,1.76-3.73,2.13-3.43.97-7.97.56-10.93,3.3,2.86,1.26.53,4.74.89,5.32.35.56,3.1.44,2.44,2.62-2.08-.66-5.63.73-7.17.5-1.03-.16-3.53-3.14-6.73-2.94-2.37.15-3.9,4.37-5.69,4.05l-3.9-4.12-.42,2.52-1.6-1.71-8.88,2.54,7.54,5.83c-2.02.23-7.13,1.8-8.71,1.48-1.27-.25-1.99-2.25-3.07-2.76-1.4-.66-2.21,1.61-3.7-1.95l-6.32,2.4-31.9-97.77-3.33,4.59,3.31,2.5-2.91,3.77c-.44.19-3.22-9.6-4.62,0-1.14,1.13-3-2.46-3.23-3.05-.86-2.19,4.2-1.28,5.01-2.46l1.58-7.85c-3.27-1.03-3.54,3.07-5.24,3.62-1.51.49-2.66-.91-4.37.54-3.27,2.77-.4,7.41-2.54,10.89-2.12,2.78-5.84-1.03-6.7-.85l-2.61,8.46-4.55.73c1.7-2.46-1.46-3.93-3.35-5.84-1.63,2.99,1.43,3.24,1.68,5.44.11.95-1.28,6.25-1.88,6.92l-8.15-.64c-.73,3.33-2.57,7.45-5.89,8.78-1.26.51-3.21.11-4.24.79-1.25.82-1.18,4.13-1.77,4.51-2,1.3-10.04.05-11.22-3.22l-12.99,8.76,3.34,3.75c-2.86.58-3.88-1.1-5.86-2.5l-.02,5.85-2.09-4.17-10.08,7.36L502.08,0l-2.04.68-1.75,7.01-7.97,1.2c-1.58,2.79-.32,7.08-.61,8.72-.59,3.33-4.2.37-5.54,2.74-.28.49-3.46,10.17-3.45,10.74.03,2.58,3.05,4.24-.85,8.39-1.09,1.16-2.77,1.08-3.79,2.07-1.09,1.06-1.04,3.67-2.95,4.16.66-3.75-1.19-6.27-5.03-6.69-.57,3.85-2.49,9.94-5.13,12.87-2.64,2.92-7.83,3.06-9.63,8.87-.41,1.32.51,2.65-.28,3.82-.89,1.32-2.98.44-4.02,1.38-.88.79-5.58,7.57-5.81,8.73-.27,1.41.63,4.22-.32,6.11l-4.17-2.5c-2.25,6.1-1.75,8.19-8.18,4.36-8.95-5.35-17.72-13.92-26.77-19.29-2.92-1.73-8-2.16-10.37-5.55l1.67-1.24c-6.99-3.75-13.25-8.82-19.68-13.41-2.18-1.56-4.23-3-6.36-4.51-5.71-4.03-11.23-8.33-17.17-12.02-1.1,1.85-4.65,2.39-5.53,3.52-1.39,1.79-.3,4-.89,5.8-.43,1.34-3.22,1.75-3.7,3.82,3.81,6.08.81,4.88-.2,8.17-1.24,4.05-.44,7.08,3.17,9.03l-5.85,3.76c-1.1-2.32,1.51-6.13-2.09-6.68l-2.13,2.91,1.7,3.3-4.19,2.15c1.6,2.51,2.41,5.42,1.27,8.36l-5.46-2.52c-.48,6.14-3.62,11.67-5.37,17.47-.61,2.02-1.6,4.28-1.99,5.71-.7,2.56.37,5.67-.35,8-.59,1.89-3.01,1.86-3.22,2.82-.21.92-.84,7.11-.84,8.22,0,1.89,1.88,6.24,4.22,5.03,2.98-2.25.41-2.11-.64-4.41-2.71-5.94,2.42-7.48,3.17-2.33.19,1.32.9,6.6.71,7.36-.57,2.32-5.34,1.36-4.93,5.6l-4.18-3.33.83,7.52c-3.06-3.11-5.13-.26-6.77-.37-5.47-.39-17.74-6.08-24.09-7.74-8.01-2.08-8.19-1.29-15.88-5.08-3.76-1.85-10.11-2.34-14.16-4.38l-3.68,3.35c-1.8-5.73-9.38-4.13-14.18-5.09-1.05-2.03-.44-2.44.74-4.09-1.71-.1-3.32-.7-5.03-.84.4.99,1.21,4.59-.43,5.01l-8.79-4.6c2.88-.59,6.3-.66,9.22-.41-.9-2.21-10.22-2.05-12-2.48-.91-.22-.86-2.14-1.93-2.46-1.4-.42-4,1.24-5.79,1.22-1.4-.02-3.02-1.12-4.6-1.28,2.18,3.63,2.44,5.92-2.51,6.68v-6.69c.82.04,1.69-.08,2.51,0-.86-1.43-.67-2.8-3.35-3.34-1.05,1.3-1.2,20.14-.62,22.75.17.79,2.65,6.03,3.96,4.82,1.77-3.66-1.4-11.76,4.19-10.46-2.48,5.05,1.96,12.7-4.61,15.45l-1.24-2.74-2.52-.59c-.61,2.37.88,4.96.78,7.05-.09,1.85-1.54,3.73-1.67,5.94-.15,2.58,1.02,4.89.96,7.49-.09,3.93-1.61,7.97-.91,12.12l3.78-3.34c3.04-.67,2.17,5.89,1.08,7.77-.96,1.66-3.53,2.09-3.92,3.65-.29,1.19.87,3.7.77,5.67-.17,3.35-2.76,6.74-1.76,10.75.38,1.51,7.11.4,2.79,7.86-.6,1.04-1.83,1.19-2.18,2.07-2.58,6.47,4.27,10.75,5.96,5.08.41-1.38.07-3.1.35-4.66.17-.94,1.75-2.6,1.51-.17-.85,2.02-.4,5.39-1.27,7.1-.57,1.13-2.46,1.52-3.31,2.55-2,2.45-1.29,5.25-5.91,5.03-2.21-.11-3.79-1.8-5.89-1.8-1.92,0-3.05,1.33-4.38,1.54-6.48.99-12.69-2.5-19.99-1.53-2.88.38-3.23,2.57-5.79,2.61-2.86.05-4.85-2.23-7.55-2.6-3.79-.51-6.93.96-10.11.94-4.98-.04-10.37-2.33-15.45,0l.77,4.94-2.1.03c-1.78-4.78-9.45-1.58-13.49-1.76-1.7-.07-2.97-2.77-5.85-3.23-3.49-.55-13.82-1.18-15.47,2.45,4.31-.18,13.23-.87,11.31,5.87-2.82-1.17-6.98-.27-9.45-1.45-2.39-1.14-1.43-4.53-4.37-4.41.24,1.23,1,4.52,1.6,5.3.65.84,2.19.55,2.99,1.36,1.49,1.5,3.49,7.78,2.94,10.05l-3.34-3.34,2.52,9.19c2.44-.3,1.36-4.7,1.67-5.02,3.32-1.95,5.46,7.89,5.03,8.36l-5.86-3.34c-1.89,2.5,8.74,18.87,8.43,22.9l-1.71.88c3.9,9.86,6.53,20.17,10.01,30.17,2,5.73,4.17,11.25,6.69,16.91.64,1.44,4.3,9.98,4.18,10.53-.82,3.7-3.03-.44-3.47-.61-1.29-.48-2.69.36-3.99.28l4.19,4.16-7.14-2.5c-.72,1.88-1.71,2.34-3.76,2.51-.34,2.11,1.71,2.54,3.36,2.51-1.2,2.04-2.27,3.53-.84,5.83l-3.65.78c-2.66-4.84-5.08-2.69-9.31-3.31-4.33-.63-4.14-1.95-9.88-.57-5.79,1.39-10.22,3.8-9.12,10.55l-7.72.76-3.51-4.01c-2.6,3.15-5.53,3.96-9.3,4.94l-.36,4.24-14.55-1.72c-1.48.36-.46,6.1-4.72,7.23-2.99.79-4.09-3.03-7.16-3.1-1.67-.03-1.56,2.43-3.73,3.12-1.7.54-5.85-.87-6.63.45-.68,1.15.47,4.85-2.62,6.14.92,2.03,7.31.73,6.7,3.33l-4.2,1.67,57.45,79,.41,2.46-4.17,2.13,3.34,3.73c-3.03-.64-1.99,6.98-2.51,7.53l-15.1-.83-.78,5.51c-4.32-.6-6.19.82-10.12,2.03-.15,1.44,2.89.91,3.81.87,1.61-.08,3.02-.62,4.57-.88,1.21,5.59-4.26,3.86-6.25,5.91-.28.28-.38,1.4-.81,2.11-.21.34-1.29.36-1.34.89-.17,1.9,1.99,3.47-1.25,5.29-1.48.6-2.05-2.16-2.01-2.93.08-1.39,2.08-4.13,2.34-6.77.1-.99.73-3.55-1.15-2.82-2.83,1.41-3.43,6.53-5.52,7.88-2.39,1.54-7.96,1.02-10.85,3.84.8,2.56,2.67,4.25,5.5,3.48l.99,1.96c-.84,2.69-4.44,1.56-5.7,2.44-1.32.92-.49,7.63-4.98,3.38l2.3-3.31c-2.15-6.31-6.76-.91-9.85,1.66l5.02.42c-2.56,9.09-16.48-2.2-13.42,10.86l-7.02.11-3,5.35c-8.04-1.44-7.57,3.75-5.04,9.53l8.34-2.46-5.03,4.99,79.55,58.08-7.39,10.04c1.62.74,2.67,1.76,2.51,3.76l-3.34-1.67c-.9,2.35-.39,5.69.93,7.84,1.49,2.43,5.19,2.36,4.06,6.31-5,.01-3.36,1.9-5.42,5.05-4.03.45-1.55-2.01.41-3.76l-2.26-2c-5.63,2.15-10.52,2.78-7.79,9.93-5.59-1.1-4.53,2.11-6.33,4.15-.99,1.12-3.2.82-3.69,2.23-.56,1.61,1.44,9.97,2.46,12-4.02.57-5.74,1.46-5.04,5.86l-2.27-1.22.59-2.95-7.54,1.68,2.51,4.58c-2.21,1.79-4.29,1.52-5.64,4.42-1.71,3.67.5,12.57-.61,14.4-1.43,2.36-4.24.67-5.72,1.01-1.74.39-10.17,6.13-9.82,7.7l3.14,2.76,97.51,32-.84,3.33c5.19-.32,2.18,3.72-.81,5.44l1.65,2.07-4.06,3.06c.64,4.27,2.94,5.93,6.58,7.84-1.89,1.71-.76,3.18-1.19,5.02-.58,2.44-2.8,1.42-3.92,2.81-.86,1.07-.56,2.84-1.21,3.82-.86,1.31-2.81,1.1-3.53,1.93-.54.63-.31,2.17-1.41,3.16-1.22,1.1-3.7,1.04-4.5,1.75-.22.19-.91,4.91-1.01,5.71l2.5-.83c-1.32,1.92.24,5.03-.07,6.15-.31,1.11-2.18,1.3-2.81,2.26-.6.9-.4,2.37-.95,3.23-2.37,3.73-6.02,6.93-6.28,12.14l3.02,1.23,3.73,4.63c-.13.34-3.8,4.03-4.16,4.17-.82.33-2.17-.58-2.47-.36-.57.42-6.53,10.1-7.21,11.67-.85,1.99-1.4,4.21-2.1,6.26l4.2.85-3.33,1.66,1.69,6.24,105.68.87c.73.73-.5,17.38-.05,20.52.28,1.99,1.93,3.4,1.77,4.95-.03.28-2.8.69-1.73,2.94h3.36c.26.19-3.36,3.87-3.36,5.44v16.3c5.09-.13-.05-8.22,5.03-8.35,1.88,3.9-1.24,8.87.14,12.82.45,1.29,2.28,1.4,2.8,2.22.83,1.29,1.52,9.77-2.09,9.19l.78-6.16-4.59-1.31-2.07-6.73v12.95c0,.23,2.01,1.49,2.35,2.67.53,1.86-.34,4.77.34,5.94.26.44,4.37,3.04,5.24,5.21.52,1.28,1.73,8.37-1.22,7.48,1.72-2.51-3.43-13.31-5.87-10.86l-.06,10.34c6.95,1.84,3.36,5.74,3.41,10.13.03,2.84,1.89,5.52.4,8.76-.83,1.81-4.57,2.84-3.75,5.86l105.7-33.42c.71,2.82,4.52,16.99,5.92,17.97.74.52,2.29.28,2.46.45.24.24-.89,4.23-.66,6.01.88,6.71,6.67,13.81,6.94,20.74l11.37,35.07,4.19-.84c-1.01,2.84.22,4.09.85,6.68h-2.52s5.89,18.39,5.89,18.39l90.62-63.15c2.73,1.35,12.59,18.75,16.39,22.2,1.18,1.07,3.76.13,5.06,1.65-1.77,6.52,4.15,8.75,6.22,14.23l2.49-3.33c2.21,5.32,2.41,11.25,7.23,15l2.85-1.27c2.52,1.42,1.07,4.63,2.07,6.39l3.8,1.21c.45,1.69-1.64,3.19-1.25,4.56,1.19,4.1,11.67,13.03,13.01,18.38,4.7.01-1.12-4.14-.85-5.41.41-1.99,3.83-.89,4.62.4,1.83,2.98-1.71,5.7-1.16,7.76.22.83,4.17,5.81,5.26,5.58l65.51-87.56c1-.08,13.48,9.55,15.61,11.05,2.07,1.45,3.82,2.8,5.82,4.21,9.61,6.81,26.33,20.72,35.78,25.45,2.11,1.06,4.48-.03,5.64.82.88.65.32,2.58,1.28,3.91,1.65,2.29,5.67,4,8.46,2.88l-1.28,2.51,18.89,12.52,34.42-104.46,105.7,33.42c-.19-2.45,1.13-4.77-1.68-5.43l1.76-1.61.76-103.27,110.75-.84-33.56-105.28,104.87-34.28-3.46-6.62-4.06.76c-1.49-1.98-.07-5.45-.5-6.71-.19-.56-6.49-9.08-7.06-9.59-1.37-1.22-4.03-1.59-4.67-2.91-.43-.88.42-2.12.03-3.29-.33-1-11.15-16.3-12.15-17.25-1.5-1.42-2.69-.02-3.76-1.13-1.72-1.77-.49-3.79-1.19-5.54-2.63-6.56-12.63-14.75-15.19-22.09l-2.5,1.66c.97-7.02-6.53-11.15-9.08-17.14l82.92-61.03c1.81-1.12-1.17-6.85-.87-7.06ZM954.7,337.36c2.45-.25,4.34,1.18,5.85,2.92-3.73,3.58-6.62,2.52-5.85-2.92ZM51.34,473.02c-.48.65.09,2.19-1.27,2.51l-4.82-.32c-.27-4.99,4.28-7.44,8.36-4.55.29,1.61-1.64,1.51-2.27,2.36ZM103.81,783.84c-.57,2.43-4.15,3.07-3.72.53.47-2.74,2.27-5.7,1.35-9.13l4.18,2.92c-3.57,1.97-1.37,3.82-1.81,5.68ZM180.29,211.17c-2.05-1.22-4.1-.72-6.28-.84-1.29-.07-3.32.82-2.93-1.23,1.57-3.23,11.12-.18,9.21,2.08ZM211.34,140.13c-2.72,2.82-4.36-5.72-3.34-7.52,1.65.54,4.12,6.71,3.34,7.52ZM328.81,85.82l.84-8.36h2.51c.53.51-.08,9.1-3.35,8.36ZM470.49,56.89c-.39,1.48-2.36,1.01-3.03,1.56-.87.73-1.46,4.32-1.91,5.64-1.72,1.65-4.78-5.47-1.42-8.12.74-.59,2.49-.11,3.01-1.58.52-1.45-.1-3.72.1-5.34l4.1,1.32-.85,6.52ZM750,120.51c-1.54.75-3.41.37-5.05.4l.51-2.59,2.74-.86.19-3.99,7.46-.91c.94,1.33-5.4,7.72-5.86,7.95ZM775.56,110.05c-1.73.45-3.07-4.34-3.78-5.46-.07-2.56,3.39-1.85,5.06-2.47,1.26-.46,2.88-1.86,3.9-1.93,1.66-.12,3.63,2.34,6.15.67-.04,6.52-9.43,4.33-11.33,9.19ZM804.68,208.5l-1-4.85c2.91.53,5.5,7.51,9.23,5.01.22-.15-1.74-3.33,1.25-3.35l1.26,5.86-10.73-2.67Z"/><path class="cls-1" d="M613.22,59.9c-.92-5.05-3.29-2.39-5.87-2-2.63.4-4.96-.45-6.71,2.84,4.91,1.82,7.97,1.26,12.58-.84Z"/><path class="cls-1" d="M35.21,636.99c1.41-.87,5-.2,4.13-3.39-1.24-4.51-9.57,5.07-8.38,6.25,2.07.21,2.71-1.91,4.25-2.86Z"/><path class="cls-1" d="M896.8,207.83l-.08-4.1c-.89.09-6.69-1.03-5.78,1.16,1.46,1.74,3.45,3.18,5.86,2.94Z"/></svg>