<?xml version="1.0" encoding="UTF-8"?><svg id="artwork" xmlns="http://www.w3.org/2000/svg" viewBox="0 0 1000 1000"><defs><style>.cls-1{fill:#004aad;}</style></defs><path class="cls-1" d="M826.4,985.98c-21.81-3.76-62.85-10.14-82.18-17.79-4.19-1.66-3.99-3.86-6.74-6.59l-6.16,3.04c-82.45-23.43-158.87-56.28-233.34-98.02-3.61-10.01-5.35-5.04-12.79-7.65-11.02-3.88-43.94-28.01-55.57-36.08-12.84-8.91-24.84-17.65-37.62-27.36-6.78-5.14-25.09-18.25-29.41-23.9-3.15-4.12-3.1-9.67-4.47-11.34-2.83-3.43-8.54-.09-11.23-1.2-1.37-.56-18.95-17.26-21.78-20-5.64-5.45-6.51-9.02-9.92-13.35-3.61-4.58-18.94-14.3-24.19-19.15-13.87-12.8-38.54-37.67-49.17-52.54-2.27-3.18-2.23-7.26-2.49-7.56-1.58-1.75-5.15-1.69-7.5-4.04-3.44-3.44-28.68-34.98-30.15-38.32-1.5-3.42-.6-4.26.23-7.55-2.85.17-5.13.28-7.52-1.67-1.11-.91-16.16-22.07-16.7-23.4-1.45-3.66,2.02-6.07,1.92-9.13-.06-1.66-7.07-15.01-9.37-12.45l-1.68,7.51c-4.82-9.71-16.82-21.78-20.43-31.39-1.43-3.8.3-5.82.46-9.45-10.09,1.81-10.85-11.17-16.3-17.53l4.51-6.42-4.9-9.39-5.82,3.25c-1.96-.07-11.4-18.96-12.84-22.09-1.01-2.19-.02-5.65-1.97-9.64-2.73-5.59-8.99-7.68-6.02-18.18-1.98-.05-3.91,2.18-5.8.12-3.85-4.19-13.08-27.07-16.15-33.97-21.1-47.5-40.71-103.47-52.88-152.39-3.4-13.65-8.1-28.12-5.2-42l-5.02-1.06L5.17,112.32c4.85-7.91,2.17-6.04.55-13.63C.49,74.07-.47,41.24.18,15.76.31,10.51,1.44,5.29,1.1,0h998.9s0,999.83,0,999.83c-58.15,1.19-116.36-4-173.6-13.86Z"/></svg>