<?xml version="1.0" encoding="UTF-8"?><svg id="artwork" xmlns="http://www.w3.org/2000/svg" viewBox="0 0 1000 1000"><defs><style>.cls-1{fill:#004aad;}</style></defs><path class="cls-1" d="M22.05,354.58c-.4.4-.3,2.22-1.19.85.97-3.23,1.48-8.16,4.17-10.4,2.63,3.98-.13,6.68-2.98,9.54Z"/><path class="cls-1" d="M488.7.4c.6.35,1.98,3.5,4.09,3.78.32.04,5.67-1.7,6.07-1.97.65-.43.7-1.98,1.38-2.09,1.55-.27,3.02,1.45,4.2,1.57,1.23.12,2.88-1.41,4.83-1.52,6.37-.38,15.15-.07,21.1,2.25,1.28.5.55,2.73,2.93,1.82,2.92-1.11,2.44-2.55,7.64-2.74,22.56-.83,64.62,8.73,87.2,14.76,3.81,1.02,19.67,4.97,21.52,6.82.48.48.78,1.4.8,2.11.42.3,1.35-1.53,2.74-1.51,2.87.04,19.99,6.84,24.1,8.38,115.67,43.23,213.93,132.51,269.01,242.39,8.89,17.73,16.58,35.92,23.9,54.35l-1.65,1.23c.5,0,1.31.17,1.58.49,2.31,2.73,9.01,26,10.49,31.18,68.06,238.21-48.23,490.17-271.6,592.94-155.62,71.59-342.2,57.78-484.4-36.66-1.46-.97-13.78-8.79-13.06-9.85l2.5-1.67c-2.1-.12-3.04-.56-3.73,1.66-14.98-10.9-29.94-22.19-43.77-34.54-1.2-1.07-1.71-2.71-2.89-3.78-4.62-4.21-14.83-11.17-17.98-16.23-.85-1.36.12-2.38.08-3.77-4.62.82-8.22-4.33-11.26-7.49-12.66-13.2-26.88-30.58-37.43-45.02-2.92-4-5.3-8.46-8.78-12.06l1.66-1.24c-1.34-.13-2.4-.45-3.37-1.45-4.23-4.34-12.85-19.76-16.45-25.79-25.36-42.54-45.89-91.97-57.05-140.34-1.14-4.93-3.82-14.11-3.93-18.67-.04-1.59-.22-2.23,1.68-2.02v-.81c-2.53-.16-2.55-2.06-3.08-4.02-1.43-5.24-6.11-36.13-5.07-39.55.78-2.55,4.24-3.99,1.49-8.92l-2.48.85c-2.04-6.23-.51-11.97.86-17.91L0,524.49l.04-36.44c3.89-2.64,3.35-9.29,5.85-13.47-.33-2.61-3.81.89-4.22,1.6-1.08,1.92-.12,4.15-1.61,4.63l.83-22.48c1.21-1.52,3.88,4.9,4.02,5.62.48,2.49-1.38,5.2-.3,6.89,2.06,3.2,8.43-4.97,2.11-4.19-.8-3.03,2.22-1.92,1.69-4.56-4.89-1.85-2.22-4.76-2.04-8.81l-4.6-2.13,1.62-15.31c1.2-.09,1.19,3.24,1.27,4.16.1,1.21-.78,2.66-.03,3.33l2.83-1.76-.61-5.61c10.68-4.18-2.16-5.88-2.41-7.16,1.11-2.62,1.83-17.9,4.37-17.94l3.74,4.98c-.68-4.4.92-4.68,4.24-6.35.54-4.59-2-3.73-3.11-4.71-1.31-1.15-1.32-3.58-4.43-3.13l-.02-1.2c3.57-3.92-.04-11.72,4.99-13.78v-1.66s-1.66.42-1.66.42c.7-1.72.88-4.41,1.59-5.9,1.22-2.54,4.4-2.95,4.96-5.96.51-2.74-2.22-4.06-1.53-6.84,5.84.37,4.21-4.36,6.26-7.49.96-1.46,2.73-1.74,3.73-2.93,1.4-1.67,1.93-5.16,4.14-6.69l-4.07-2.64c-.36-4.03,3.23-7.81-.09-11.09,4.44.33,6.35-2.7,9.22-4.56,2.01-1.31,3.82,1.03,4.13-4.18.18-3.06-2.51.13-3.59.59-1.38.59-3.33.46-4.37,1.46-1.74,1.69-.36,6.21-5.39,5.01,3.74-9.69,7.19-19.56,11.27-29.12.9-2.11,5.77-14.29,6.35-14.86.2-.19,3.76.71,3.23-3.49,2.28-1.05,2.65,1.65,2.89,1.68,4.52.68,4.37-7.81,5.64-9.8.34-.53,1.94-.83,2.69-1.87,1.73-2.39.69-5.52,4.52-7.15l-.77-2.45-3.34-.4c-.69-3.14,3.26-6.07,3.81-8.29.34-1.35-.59-2.61-.14-4.21.18-.64,5.87-11.19,6.41-11.57.23-.16,2.5,1.36,4.93-1.55.25-.3,2.33-3.86,2.37-4.09.17-1.15-1.72-1.74-1.24-3.61.36-1.4,5.97-9.1,7.31-11.11,2.9-4.33,6.79-8.91,9.49-13.83,1.78-1.91,1.15-.3,1,1-.32,2.87-2.33,7.88-2.36,9.36-.04,2.25,2.33,4.5,1.75,7.1,2.55.58,1.23-1.65,2.48-2.91,1.26-1.27,6.03-1.59,3.63-4.57l-3.26-.78c-.79-1.06,1.05-6.61,1.74-7.55.76-1.02,2.78-.8,3.36-1.63,1.31-1.89-.81-7.89,4.49-9.72l-2.32-4.05,4.04-6.25c2.15-.46,1.25.53,2.06,1.66,2.21-2.84,6.36-5.53,8.39-8.27,1.89-2.55,4.12-7.43,5.86-9.97,7.36-10.76,7.19-2.07,10.62-2.67l5.45-3.33c.67-.94-.88-3.19-.33-4.87,1.75-5.35,14.63-8.31,11.32-15.39l.71-.92c4.97.84,6.1-2.61,8.18-3.7,2.26-1.19,5.74-.03,7.68-2.11h-4.21s-2.07-3.8-2.07-3.8l-4.54.48,17.07-15.4.89,4.21c-1.2,1.68-6.61-.64-6.3,3.26.29.25,7.06-1.86,7.5-2.09.29-.15,4.56-3.71,4.78-3.94,1.01-1,2.05-4.86,4.16-6.03l-2.29-2.51c6.06-3.28,9.81-8.29,15.41-12.08l1.72,6.68c-2.47,2.1-5.31,2.68-4.65,6.64-5.68-2.69-9.33,2-3.74,5.81,1.3-4.35,7.12-3.72,8.56-5.17,1.96-1.96,1.08-9.85,1.93-10.56,4.54-.47,13.33-.38,12.41-6.74l-4.16-.41c.74-4.37,7.97-5.15,4.16-8.74l26.24-16.67c1.47,2.65-2.33,4.97-2.79,7.27-.32,1.62.64,3.86.3,4.42-.3.51-1.8.85-2.46,1.69-2.75,3.54,1.81,7.59,2.86,6.6-.08-6.75,10.18-3.46,8.33-10.83l-6.65,2.49c-1.27-3.68,3.37-5.03,3.99-7.24.46-1.61-.25-4.25.29-5.13.22-.36,1.97-.51,2.66-1.06,1.24-.99,2.26-2.26,3.65-3.05,2.22-1.26,5.18.12,4.4-3.51,4.53,1.49,7.52,1.49,10.35-2.56.81-1.16.09-2.63,1.8-4.03,6.47-5.28,33.51-16.14,42.59-19.87,16.12-6.63,34.65-11.29,50.01-17.62,3.82-1.58,8.02.05,10.28-.49,3.95-.94,1.99-4.71,5.93,1.47,2.44,3.84,2.6-1.12,4.5-1.75,1.55-.5,3.72.11,5.53-.3,2.07-.46,6.96-4.41,9.24-3.89,2.67.6,1.34,6.85,3.41,5.71,1.19-.66,3.14-9.44,7.93-8.33l-1.67-3.31c2.77.47,8.02-2.22,10.26-1.74.9.19.45,2,2.47,2.43,2.18.46,7.85-2.2,10.59-1.54l-3.32-2.48,26.24-3.33c5.17-.48,35.4-2.78,37.69-1.47ZM438.1,11.01l-.85-4.99c-2.88,2.27-4.39,4.2-8.31,2.5-.7,3.55,8.46,3.21,9.16,2.49ZM448.08,9.34l-.41-1.65c-2.64,3.07-6.85-.77-8.75,3.31l4.99,1.68.14-2.3,4.02-1.05ZM415.61,11.03l-7.5.83c.21,2.19.81,6.44.49,8.39-.35,2.08-2.77.87-2.14,3.26,6.76-.6,4.05-9.8,9.16-12.48ZM438.1,26.01l2.85-1.73c-.28-1.37,3.2-4.89.89-5.76-1.77-.67-1.44,3.52-2.9,3.74l-.83,3.74ZM393.95,31.85c-.75-3.37,1.14-4.44,2.46-6.99-6.73-5.98-4.1,2.7-4.96,6.98h2.49ZM343.99,31.84l-3.08-4.05c-1.53-.39-3.4.86-4.42,1.99-.68,2.87,6.1,2.05,7.49,2.06ZM357.31,31.02c-2.21-1.12-5.97-.74-7.11,1.66-1.01,2.12.71,3.7.33,5.24s-4.49,4.76-3.2,8.07l5.86-5.6,4.13-9.38ZM332.32,37.68l-5.01-1.32-3.31,6.3,4.05-.12c.31-.88.26-2.14.86-2.85,1.21-1.44,3.33-.46,3.41-2.01ZM358.98,45.17c1.46.37,1.75-.97,2.9-1.25.69-.17,1.97.75,2.94.08,1.18-.81,2.46-5.22,0-5.49.68,5.22-5.4,2.71-5.83,6.66ZM306.37,50.01l2.22-3.15,2.49,5.79c8.52-6.12,2.47-13.43-6.54-8.39l-2.19,4.66c.78,1.28,2.74,1.81,4.01,1.08ZM322.98,44.58c-.78-.43-4.28.74-4.8,1.85l4.17,2.67-.83,8.57c3.72-1.66,1.93-7.9,5.81-8.35.42-2.39-2.17-2.36-3.55-3.34-.54-.38-.63-1.31-.79-1.4ZM311.51,57.67l-7.36-1.58c-1.99,3.14-3.93,5.35-1.39,9.08,1.01,1.48.95.36,1.64-.03,3.01-1.71,6.26-3.8,7.11-7.47ZM264.88,71.82c6.97.85,8.15-3.36,11.64-7.9l-8.31-2.91,4.16,7.48c-2.75.02-6.19.53-7.49,3.33ZM260.7,68.5c-.79-.52-2.75.19-3.31,1.25,7.2,3.16-3.57,3.23-.84,6.24.48.53,4.14-1.89,4.52-2.48.33-.5-.16-4.87-.37-5.01ZM290.69,68.5l-7.96,3.27-.36,5.05c2.67.61,2.66-3.4,3.51-3.98,1.39-.95,5.56.19,4.81-4.34ZM305.68,75.15c4.25,1.76,11.9-3.67,3.87-4.17l-3.87,4.17ZM271.53,78.49c-1.91,0-4.57-.29-6.2.89-1.35.97-.98,2.43-1.51,3.05-.85,1-4.93.87-3.55,4.4,2.4,2.38,1.99-.54,3.28-1.71,1.81-1.65,3.92-2.75,5.91-4.12,1.01-.7,2.49-.54,2.07-2.5ZM229.36,86.29c.83-.71,1.92-1.09,2.64-1.96l-.86-1.67-7.06.84,2.92,4.99c1.49.36,1.63-1.57,2.36-2.2ZM228.93,97.53c.54-.34,1.24-2.68-.28-3.2-2.39,2.55-4.92.55-7.91.82-.45,3.46,7.05,3.1,8.19,2.38ZM224.9,100.15c-5.3.46-3.86,5.41-7.49,7.08l2.94.37.39,3.38h2.48s1.67-10.83,1.67-10.83ZM245.71,115.14c.03-5.2,4.29-3.28,6.27-4.98.86-.74,3.09-5.73.82-5.82-3.01,2.94-13.46,6.42-7.09,10.81ZM192.43,129.29c4.27-1.91,11.6-.7,11.64-7.03l-2.06-1.29c-2,6.31-9.63,1.85-9.58,8.32ZM182.44,135.13c1.88-.59,1.49-3.05,2.85-4.21.85-.73,3.55-1.04,3.79-2.04.75-3.11-2.78-.91-3.21-.86-5.3.52-4.89,2.49-6.46,2.76s-6.26-.74-8.65.2c-.65,3.03,2.15,3.25,3.76,4.99l5.15-4.05,2.77,3.22ZM203.25,132.64c-1.72-.44-3.25-1.09-4.78.21l-3.54,8.11c1.99-.11,9.31-7.02,8.31-8.32ZM177.43,141.8c-4.56-.77-4.4,13.33-3.27,14.13,1.44-.12,4.01-.36,5.18-.99,1.43-.76,1.51-2.24,2.28-2.72,1.34-.83,4.39.09,4.94-1.78l-.8-3.65-9.15,1.66.83-6.66ZM164.67,153.57l-4.71,2.8,3.74,2.87c1.36-1.7,4.84-5,.96-5.67ZM162.44,162.62l-4.2.49-2.07-4.66-4.56,1.68c3.06,4.85.12,3.84-.69,6.4-.74,2.35-.36,4.42,2.36,4.09,4.32-.53,3.33-2.11,5.37-3.87,1.55-1.34,4.57-.62,3.77-4.13ZM139.76,174.44c-.86-.02-5.63,1.07-5.61,1.92,1.98,3.07,5.1,2.1,7.48-.01.26-1.11-.75-1.88-1.87-1.91ZM128.01,177c-.98.09-3.08,1.03-2.71,2.32l2.15,4.57c6.91,1.98,7.14-7.51.56-6.89ZM157.45,176.78c-4.02,1.43-5.71,5.19-10.72,4.26-.66,3.05-3.53,8.03,1.55,7.39.66-8.18,4.06-4.47,6.72-6.2.92-.6,1.42-4.27,2.46-5.44ZM143.19,186.86l-3.23-.1c1.39,4.55-2.86,2.91-3.75,4.95-.34.77.65,2.33.3,3.61-.47,1.74-6.98,6.36-3.63,9.77.62-1.74,2.3-2.07,3.12-3.52.89-1.58,2.46-7.54,3.3-8.78.7-1.03,6.45-1.49,3.88-5.92ZM117.56,204.17c2.62,3.13,9.61-4.24,9.07-6.14-.93-3.33-11.52,1.53-9.07,6.14ZM158.28,199.28c-2.86-1.39-4.31-2.26-7.48-.84l2.9,3.96,4.58-3.13ZM111.64,205.93l-2.54.49-2.03-3.81c-3.17,2.14-1.91,5.8-2.08,9.14l5.13-3.61,1.52-2.21ZM129.97,212.6c-1.95-.43-2.46,2.01-3.93,2.38-3.76.95-7.91-3.69-6.05,6.77,1.58-.1.41-2.07,2.12-3.28,3.11-2.21,7.62.9,7.87-5.87ZM105.07,229.16c1.81,3.01,9.52-5.19,10.73-6.99-4.24-4.15-6.62,2.35-10.67,3.05-.33.54-.35,3.45-.05,3.94ZM86.83,226.6c-.87-.56-.27-3.3-1.82-3.17l-3.34,6.64c4.1,1.52,5.46,4.46,9.96,1.62.01-5.55-3.04-3.95-4.8-5.09ZM101.06,237.81c.66-.55,2.71-.34,3.09-1.49l-1.65-2.9c.42,3.86-1.92,2.42-2.94,3.28-.9.75-3.72,4.98-2.89,5.88,3.01.48,3.31-3.86,4.39-4.77ZM79.16,251.73l3.63.77c2.72-5.86,11.28-2.84,11.35-9.61.04-3.79-2.9-3.46-5.86-4.01l-.79-3.8c-3.11,1.11-2.26,4.7-3.25,7.15-1.18,2.91-5.01,5.22-5.07,9.5ZM72.52,253.41c4.98-.62,5.55-5.49,2.89-9.15l-2.89,9.15ZM70,252.58c-.56-.44-5.96,5.16-2.89,5.83l3.36-1.69-.47-4.14ZM68.34,290.89c-3.04-.86-2.35,1.55-3.69,2.51-2.17,1.56-5.57,1.08-3.77,4.96,5.72.45,7.06-2.2,7.46-7.47ZM59.48,304.53c1.28-.86,2.86-1.13,3.87-2.4-3.06-5.96-9.55,2.82-14.13,2.54l-2.47,6.54,2.02,1.37c3.25-2.77,5.39,1.65,9.53-.91l-.44-2.52-2.34-.69-.5-1.72c2.82.59,3.44-1.51,4.46-2.2ZM48.35,318.37l-4.49-6.74-3.37-.81-3.79,10.87c3.16.54,2.95-4.28,4.69-4.91,2.77-1,4.32,1.78,6.97,1.58ZM45.84,332.53c.67-4.66,7.07-.25,7.51-6.23-3.47-3.21-3.27,4.48-9.16,1.24l1.65,4.99ZM24.21,381.68c9.37.63,2.85-5.01,4.15-10.82-1.58.99-4.85,10.13-4.15,10.82ZM30.03,390.83c-5.82-5.52-8.59-4.67-10.83,2.9l1.74.95,9.09-3.85ZM15.88,419.17l-4.15-1.67-1.67,6.66c.37.4,7.7-2.77,5.82-4.98Z"/><path class="cls-1" d="M137.46,155.96c.32,2.85-.43,6.66-3.73,7.49-3.84-1.91,2.65-8.72,3.73-7.49Z"/></svg>