<?xml version="1.0" encoding="UTF-8"?><svg id="artwork" xmlns="http://www.w3.org/2000/svg" viewBox="0 0 1000 1000"><defs><style>.cls-1{fill:#0060e0;}</style></defs><path class="cls-1" d="M536.67,454.7l.91,2.49-1.71.43c-.14-3.41-5.25-1.88-4.29-5.92h6.84c.33,2.22-.07,2.17-1.75,3.01Z"/><path class="cls-1" d="M434.14,554.23c-2.97.46-6.06-.83-7.69-3.38l6.29-.79,1.02.74.38,3.43Z"/><path class="cls-1" d="M865.69,139.51c.03-.22.06-.41.11-.53l-.11.53Z"/><path class="cls-1" d="M2.48,1000h997.52s0-999.16,0-999.16c-3.38,1.46-1.18,5.44-5.98,4.24-.27-.28,1.05-5.23-2.15-5.08-.96.05-1.48,3.53-2.47,4.31-1.31,1.02-3.74.6-3.92.78-1.85,1.79,4.94,14.59,3.4,17.78l-3.29-.98-.12-2.7c-.27-2.58-6.5,3.62-6.71,4.25-.57,1.75.52,4.18-.93,5.87l-1.47,1.09-5.48-1.21c-1.55,1.13.02,5.74-2.1,6.4-4.08,1.28-1.69-6.65-6-4.26-.64,4.45-1.83,13.74-4.58,17.31-1.08,1.4-4.74-.55-6.06,1.79l3.39,2.54c-1.19,2.27-3.05.05-4.27.78-1.8,1.08-1.27,7.25-5.55,7.83-4.7-2.44-6.54-5.28-5.56-10.72-4.93.67-1.47,9.2-2.73,12.96-2.62,2.62-3.83,11.96-5.79,13.76-.58.54-1.57.88-1.76-.1l-2.21-3.69-1.45.05c-1.93,1.72-3.25,3.05-6.12,2.47-3.27-.66-1.3-3.3-2.67-4.36-1.38-1.07-9.35-.17-9.73,2.63,6.64-.89,4.63,11.84,1.29,11.02-1.49-.37-1.52-5.48-3.85-5.93l-.87,14.41c-3.6.62-3.14-1.85-4.19-3.89-.46-.89.44-1.59-1.78-1.2-3.47,6.22,5.01,19.06-5.89,16.85l-1.47-5.87-2.9.04c-.16,1.64.21,3.5,0,5.09.53-.14,1.84-.3,1.73.56.59,3.63,3.27,6.82,0,10.04-3.92,1.46-5.87-.11-5.14-4.22.44-2.5,2.89-2.35,3.42-6.39-1.43.38-2.44,1.95-2.58,3.39l-4.8-3.29c-7.97,2.99-1.83,4.84-1.29,6.36,1.15,3.26-1.91,7.53,2.75,9.37l-1.77,8.75-8.99.83c-2.33,3.5-1.37,11.64-3.39,14.43-1.88,2.59-2.5-3.36-2.26-5.41l-.74,3.71-3.91-.83c-.19-.25-.38-5.86-.26-6.22.52-1.56,3.42-1.54,3.33-3.51-3.39-10.51-10.51,4.5-6.85,9.7l-5.12-.84c1.2,4.23-2.77,5.03-3.65,6.96-1.94,4.24,1.18,5.5-6.24,6.54-2.08,5.26,2.66,7.34,2.73,12.49.05,3.85-1.49,5.47-4.79,7.06-1.36-3.24-1.95-4.96-.87-8.47l-5.47.08-.51-2.63-2.52.02-3.46,11.84c-4.49-.06-2.71-4.72-3.81-6.81-.39-1.09-2.89-.04-2.98.08-.51.66,2.25,11.97-3.03,12.66-1.84-1.83-1.11-4.98-4.71-4.23l-.82,7.2-3.41.47c.38,14.24,10.57-9.86,15.33,1.64-5.79-1.35-4.86,2.85-6.8,4.62-1.44,1.32-6.88-.07-8.62,1.69-3.87,3.91-.11,7.39-.35,8.98-.06.39-2.34,6.7-2.7,6.79l-3.75-.06.84-5.06c-1,.07-2.08-.48-3.01-.43-3.8.19-1.37,4-3.82,5.5l-1.66-7.1,1.87-1.22,3.89.54c3.51-4.45.83-4.13-.2-6.71-.36-.89-2.38-9.19-3.92-7.99-2.36,3.53-1.15,8.94-2.63,12.48-.36.87-1.48.59-2.25,2.98-2.3,7.14-.13,14.4-2.75,21.04l-2.6.37c-3.2-4.58,4.36-7.53,2.13-11.02-1.26-1.98-2.54.56-4.09.64-6.93.35-4.69-2.86-6.16-5.73-.52-1.02-1.11-.92-1.74,0-1.81,2.62-2.26,11.37-3.72,14.79l-3.52,1.74,4.7,2.96c1.93,0-.23-7.39,3.4-6.76,1.86.32-.48,7.07,1.2,8.83-2.92,3.67-6.34-.56-9.64-.31-2.2.74-1.37,8.54-5.2,11.05-2.57,1.68-6.8-2.8-8.61-.11-.29.44-2.77,9.7-2.56,10.18.24.57,1.3,1.11,1.74,1.7l2.7-3.3,3.71.79-3.79,6.88-9.9,1.15-2.56,7.21c-3.38-2.09-1.77-6.78-1.69-10.16,6.17,1.33,11.93-3.41,6.4-8.47l-7.69,8.44c-.87-.67-1.66-2.12-2.7-2.41-3.33-.92-5.49,9.31-2.85,11.3l-3.43,1.28c2.43-2.9-1.35-7.58-4.29-6.37l-.84,2.98,3.35.08,2.64,7.94c-6.17.92-.74,14.12-5.01,12.17-.18-.08-.02-2.45-2.67-1.55.67,7.64-5.65,5.72-11.11,6.79l-.97-5.82h-3.18s-.11,6.66-.11,6.66l2.51-1.34c5.18,3.26-.69,7.68-2.94,10.66-2.45-2.83-4.92-4.86-8.98-4.22.22,1.7,3.09,1.12,4.27,2.14.99.86.49,2.94,2.57,3.36-2.69,5.71-9.7,1.89-13.33,4.58-1.46,1.08-1.74,4.24-2.15,5.92-6.05-1.18-7.1,7.38-9.26,11.59l-7.58,1.39c-.68,1.91-1.33,7.93-2.29,9.16-1.4,1.79-7.8.19-4.71,6.77l4.26-.85c.69,5.04-2.31,5.12-5.56,7.52-3.46-1.72-1.27-4.17-1.57-6.13-.36-2.34-1.91-12.61-3.66-13.19-5.71-1.9-4.78,11.94-13.06,9.34,1.02,3.66-2.72,8.37-2.73,10.51-.02,3.88,3.37,2.44,3.54,3.41.46,2.59-2.64,4.28-.9,7.19-.21.24-3.32-3.2-6.04-1.33l-.91,4.59-5.49.87c-1.8,1.53-.54,4.54-2.86,6.54-1.92,1.67-10.18,4.96-12.91,6.7.23,3.85-4.53,5.79-4.94,6.53-.82,1.47.81,4.88-1.9,6.22-2.46-.43-6.93.47-8.79.23-1.76-.23-3.91-3.17-5.72-.27,1,3.52,3.33,1.48,6.02,2.49l.85,3.36c-.42,1.9-6.42-.46-7.51,4.54-.97,4.4,1.92,9.24.26,13.82l-4.81,1.16c-1.13,3.69-1.09,6.85-5.93,7.25-.55-.6,2.46-8.09,3.09-9.25,1.08-1.97,4.1-4.1,4.34-5.71.24-1.63-2.23-9.24-4.43-8.76-.93,2.64-3.02,6.63-3.67,9.08-1.26,4.76,1.55,6.58-5.31,9.15-.51,1.98,4.44,1.5,1.79,4.99-7.26-.55-4.02,11.31-9.9,9.83-2.58-.65.77-3.15.9-4.62.14-1.76-1.53-7.29-2.17-9.38-.37-1.2.55-1.5-1.72-1.25l-1.71,7.63c8.2-1.09,3.2,5.41-2.18,4.14-2.17,1.79-.67,4.91-1.34,5.93-.28.41-3.02.62-4.12,1.43-.97.71-1.24,2.15-2.16,2.94-.92.8-2.74.73-3.44,1.67-2.94,3.92-1.03,16.53-4.4,18.51-1.64.97-4.95.47-6.36,2.17-1.72,2.09-3.24,11.65-5.05,13.63-3.38,3.68-5.12-2.1-5.63-2.14-.42-.03-7.4.88-8.28,1.07-2.64.56-7.94,1.95-6.53,5.22.86,2.5,8.36,1.71,8.45,3.48.09,1.83-3.57.45-4.46.61-.61.11-6.86,2.82-7.08,3.18-2.1,3.43,2.5,6.34,2.1,7.99-5.18,3.01-3.09,3.23-3.64,6.72-.24,1.54-2.4,2.72-.59,5.64h-3.41c2.14-11.01-2.9-5.69-7.13-6.72l-1.49-3.37c-3.06-1.04-7.72,3.31-6.71,6.2.67,1.93,5.54.86,5.07,3.46-.36,2.01-1.98.59-2.81.21-4.1-1.82-8.48-.76-9.99,4.05-.08,3.06,2.13-.01,3.19-.3,1.47-.4,6.3.49,7.05,2.39l-7.97,4.12c-3.95-.91-3.08-5.56-7.72-3.99-2.88.97.72,8.38-5.26,8.29-1.89-.03-3.61-2.53-5.59-1.27-1.38,1.01.12,9.02-5.38,7.18-1.07-.36-3.91-6.37-3.41-.94.82,8.86,6.64,3.55,6.7,8.18.07,5.02-5.48,4.88-3.01,10.63-2.25.31-3.82-.29-5.12-2.13.96-2.55,3.61-1.76,2.56-5.5h-12.39c-.43,0-1.78,1.8-1.26,2.51.14.19,2,.07,2.43,1.4.44,1.36-.31,3.57.23,4.45.22.36,7.06,2.61,4.62,6.07-2.59,3.67-6.43-2.36-7.52-2.84-2.66-1.16-7.86-1.38-10.9-2.26-.54,2.89,3.51,1.43,4.73,3.36,1.15,1.83-1.37,2.46-2.06,3.94-2.17,4.65-.82,6.48-7.8,7.11-.02,1.52,4.88,1.76,5.45,1.59,1.2-.36,1.1-2.35,1.96-2.52,1.26-.24,2.91.94,4.04.73,1.25-.23,2.44-3.25,4.79-2.35,2.33,6.85-6.6,6.16-10.25,8.05-1.86.97-1.44,4-3.1,4.55-4.17,1.39-6.44-2.59-6.41,5.93-5.43-.33-16.31,1.63-7.61,6.93l-5.99,8.89-10.49.27-4.42-5.01-7.26,3.01c1.7,2.36,4.16.95,6.33.51l1.38,3.29c4.69-2.64,7.39,5.63,7.42,9.08.03,3.56-6.36,7.93-7.46,3.24l3.42-2.56-1.33-2.1-8.93,3.39-.79-3.89c-3.45-1.62-5.88,1.44-3.56,4.38,1.81,2.3,6.47.98,7.77,3.73-3.61-.55-3.74,2.85-5.53,4.28-1.89,1.52-5.85,1.99-8.09,3.85-1.84,1.53-3.7,6.34-4.29,6.76-3.04,2.14-7.41-2.66-.9-3.02-2.1-4.27-7.51.65-9.87.84-1.54.13-3.28-1.39-4.68-.44l-.83,7.23c6.61,1.39,3.3-6.54,8.54-5.92l.86,12.69c-4.3,2.44-16.56-2.33-12.91,5.61.64.75,8.35,2.34,4.36,4.99-.27.18-5.6,2.53-5.92,2.6-1.17.27-1.97-.91-3-.93-4.94-.09-4.5,2.38-7.3-3.38l-7.73-1.69c-3.27,6.12-3.1,14.18,3.42,17.82-3.11,2.64-5.45,4.23-9.73,3.76-2.53-.27-4.55-2.42-7.26-.7-1.34,2.87,1.35,3.22,1.57,3.9.34,1.07.84,6.42.14,7.34-2.03.47-4.86,1.78-6.71,2.06-1.26.19-3.08-.93-3.52-.61-.28.2-.38,1.54-.96,2.06-4.96,4.37-2.15,3.25-2.97,9.81l-8.15,2.48c-.61,2.51,5.33,4.45,3.85,6.77-1.54,2.4-3.79-.72-4.29-.73-1.13,0-1.75,3-2.74,3.27-.72.2-5.52.61-6.56.59-.89-.01-1.91-1.23-3.35-1.23-2.9,0-7.51,2.79-10.87,2.73-2.94,3.61,4.42,2.26,4.96,5.2.87,4.75-4.74,7.86-4.78,8.36-.04.63,1.54,1.86,1.39,3.27-.15,1.38-1.96,2.46-2.18,3.66-.16.88.85,2.12.54,2.69-.7,1.27-10.18,4.24-11.47,4.11-1.04-.11-2-2.86-4.24-2.27l-2.49,6.87-9.06,2.46c1.38,1.88,3.49,1.65,2.49,5.01-3.02-.57-4.73,3.05-5.6,3.32-1.41.45-3.23-.11-4.82.34-2.37.67-4.9,4.08-8.33,3.19l1.35,4.14c2.91-1.93,4.65.51,6.08.65,1.75.18,4.15-.63,6.25.27-.81-1.34.73-5.65,1.72-6.34.82-.57,2.37-.36,3.33-.93,3.15-1.84,4.25-3.15,8.62-2.89l-.06,2.47c-2.65-.43-3.64,2.35-5.09,3.01-1.32.61-3,.21-4.22.89-3.11,1.74-1.55,5.99-1.75,6.3-.58.88-8.16,1.22-9.6,1.75-1.08.4-.91,2.03-2.03,2.4-1.57.52-12.15,1.09-14.32.94-1.6-.11-3.95-1.75-4.81-1.24-3.52,2.08,4.29,3.67,4.26,5.09l-5.95,3.39c5.33,4.42,10.08-3.83,14.43,2.68l-.82,3.65-2.51.02c-.71-8.21-12.43.64-16.83.67-1.28.01-2.13-1.57-4.02-1.52-1.91.05-4.29,2-6.51,1.71-.9,2.76,3.43,1.58,4.17,2.64-.27,4.99.02,6.63,4.96,8.24,6.3-3.45-2.76-4.07-3.14-5.39-.05-3.92,4.81-5.07,6.82-1.69l-2.55,2.96c2.67,1.32,5.08-2.8,6.4-2.53,4.28.87-3.93,7.81-5.08,8.5-1.73,1.02-3.68.84-5,1.62-2.24,1.32-2.96,6.74-9.2,3.92l-2.06-3.86c-2.4,4.12-5.87,2.48-8.98,4.67,6.89,7.81-3.94,5.6-5.03,7.3-.54.85.44,3.29-.91,5.46-1.74,2.79-5.57,1.56-6.52,2.87l-.37,10.2c-1.34.99-4.38-4.44-5.11-1.26-1.03,4.49,3.69,2.02,4.63,2.08.38.02,2.38,4.42,6.48,2.58v2.53s-4.71-1.67-4.71-1.67c-1.89,7.01-8.68,5.49-12.74,9.4-1.28,1.23-1.09,2.71-1.98,3.31-1.84,1.24-6.45,1.22-7.72,1.9-.56.3-.62,2.06-2.72,2.8-.86.3-5.74,1.17-6.52,1.13-2.27-.12-4.32-4.02-8.06-1.59l8.15,5.05.03,9.35c-.97,1.58-5.79,1.93-6.31,2.71-.52.79.25,2.69-.98,3.67-2.43,1.93-14.89,1.04-15.14,4.2-.1,1.2,1.91,4.18.58,6.36l3.42.42c-2.66,3.13-7.31,3.01-11.11,2.97v2.54s3.43,0,3.43,0c3.03,2.95-10.81,6.41-13.27,5.95-2.27-.43-6.11-7.64-8.1-5.95,1.87,4.32-.74,7.86.8,12.19l-4.15,2.75.79,5.39c-3.62-.39-11.56,6.95-14.35,2.36-.82-1.35,1.02-3.85-1.88-3.2-.07,4.36-3.65,6.39-7.7,6.79,3.99,4.96,7.65,1.64,11.95,1.2,7.38-.75-.17,4.59.87,5.57l6.82,2.12c-.96,1.67-3.86.87-4.73,2.09-.64.9.09,2.8-.88,3.51-2.64,1.95-9.67-.76-11.03,4.14-3.39-1.83-3.72-5.59.19-6.65,1.01-.27,8.94,1.56,6.7-2.69-1.38-2.62-13.53-3.7-16.72-3.36,1.28,2.94,6.54,1.93,6.77,5.45.38,5.94-5.54,3.57-8.45,6.82,2.75,4.95,4.35,5.61,9.8,5.08,1.61-.16,3.79-3.37,3.85,2.13-2.56-.82-6.1,1.06-8.11.86-1.91-.19-2.64-2.6-4.28-2.6-1.5,0-2.08,1.74-3.03,2.12-1.77.71-7.02.57-5.89,4.17.46,1.47,4.46,1.7,3.37,4.75l-7.59,2.19c.44,1.89,1.49,3.29-.55,4.61-4.21-3.04-5.06-1.1-8.08,2.11,1.13,1.35,3.17.67,2.55,2.96-3.06.6-7.93,1.04-10.5,2.73-1.38.91-1.81,2.73-2.87,3.08-1.11.37-8.04-.5-5.88,2.7,2.34,3.46,8.76,1.88,10.34-1.68,2.37.42,4.33,1.57,3.79,4.19-3.49,2.55-14.21.6-15.88,3.4-.49.83,1.49,8-2.07,10.16l4.27.86c1.74,1.97-5.41,3.57-6.88,3.04l-2.1-4.73c-.79,1.95-4.59,2.49-5.2,3.35-.19.27.03,5.01-1.21,6.35,1.67,3.18,7.75-1.83,7.68,2.57-.04,2.42-5.33.02-5.93.44l-.89,5.92-3.01-.83c-1-9.58-4.59-12.76-11.11-4.36-.77,4.06,7.84,3.84,5.57,6.04-2.76-2.15-4.61-1.03-7.56.12L0,994.82c3.25,1.95,4.74-2.39,7.18-4.13,3.32,5.01-3.77,5.26-4.71,9.32ZM994.23,15.86c-.44-.44-4.01-7.02-3.62-7.4l6.44.8c1.18,2.23.67,10.13-2.81,6.6ZM902.55,99.14c-.83-3.11,1.75-2.53,3.08-4.16.91-1.11.99-2.79,1.41-3.24.91-.97,3.05-.58,3.87-1.27.76-.63.54-2.55,1.22-3.03,1.48-1.06,6.9-.38,7.94-4.38,8.67,6.68-3.54,4.03-4.49,5.25-.56.72-.4,2.47-1.13,3.54-.75,1.09-2.28,1.37-2.86,2.26-.71,1.09-.33,2.69-1.32,3.78-1.51,1.65-5.59,1.25-7.71,1.25ZM859.39,155.06l-2.14-3.78c.15-.74,10.29-4.27,10.24-1.71-.03,1.48-7.4,2.92-8.1,5.49ZM694.43,318.63c-2.95-.65-.38-8.13,2.97-7.62.48,1.73-.34,8.2-2.97,7.62ZM654.58,344.81c-2.04.27-4.55.62-5.9-1.19l2.58-8.03c5.16,1.74,4.73,4.71,3.32,9.22ZM653.82,358.46l.4-5.11,5.57-10.98c.66,2.41,1.49,5.43.71,7.89-.57,1.81-2.68,1.8-3.32,2.85-1.03,1.68-.12,5.6-3.36,5.35ZM641.85,364.81c-.46-3,4.8-3.45,6.83-2.1l-1.28,2.17c-1.24-1.07-5.18,2.31-5.55-.08ZM605.1,397.45c-.63-2.62,2.8-1.72,3.32-3.98.25-1.09-.97-2.62-.76-2.79h2.56s-.85,3.38-.85,3.38l5.12-.84c-.17,3.36-6.87,3.21-9.39,4.23ZM501.67,511.85l.12-6.65,4.14-.97c.81.82-1.52,8.26-4.26,7.62ZM482.85,522.88l-7.68-1.71.83-2.99c4.98,1.59,3.5-1.93,4.47-2.75.6-.51,4.28-.28,5.36-2.51l2.94,1.98c.08,4.38-6.73,1.7-5.92,7.99ZM456.34,555.92c-2.8.24-3.32-2.91-1.77-4.74.43-.51,8.32-3.21,8.63-2.87,1.61,5.82-6.06,2.63-6.86,7.61ZM349.94,657.62l.36-6.71-5.06-.92c1.49-1.44,2.89-8.65,4.48-4.86,1.43,3.39.57,5.86,6.23,5.76,3.43-.06-.07-6.53,3.82-5.97,1.95,7.47-5.66,8.15-9.83,12.7ZM317.04,688.98c-.32-3.06-.15-5.44,2.59-7.24l5.1,1.33c.56,2.49-2.46,1.64-4.28,2.96-1.66,1.21-1.03,3.45-3.41,2.96ZM294.82,718.63c-1.94-5.83-1.81-8.8,2.13-13.54,1.68-.04,3.26,8.05,2.98,8.42-.15.2-2.59.42-3.44,1.28-1.42,1.44.04,3.77-1.67,3.84ZM266.61,732.2c-.29-2.89,2.99-3.83,3.84-6.76,3.24,3.26.55,7.59-3.84,6.76ZM198.23,796.6c.07-6.81,11.8-2.71,8.04.05-2.76,1.49-5.19-.04-8.04-.05ZM192.59,811.83l-4.62-.82,2.99-5.06,2.91,3.91-1.27,1.98ZM102.49,899.15c-.07-2.59,5.62-5.89,6.82-2.95,1.38,3.36-5.11,1.79-6.82,2.95Z"/><path class="cls-1" d="M51.95,934.45c-2.15,5.18-3.27-.32-5.87-.55l.85,5.07-6.84-.84c-.18,1.76.83,7.05-1.35,7.57-1.04.25-4.7-1.17-4.68-2.9,0-.59,4.71-7.39,5.58-8.08,1.91-1.52,8.38-4.42,10.53-3.17l1.78,2.9Z"/><path class="cls-1" d="M310.2,678.8c-4.05-.42-6.19,3.28-10.25,1.71l1.7,11.86c-4.55.75-9.16-.64-8.15-5.9,3.92-3.87,4.78-8.92,11.16-9.36,2-.14,4.88-.45,5.54,1.69Z"/><path class="cls-1" d="M721.73,277.92c-1.73,1.82-2.14,4.9-5.51,4.28-.21-4.79-2.51-16.52,5.5-11.02l3.03-3.38c2.52,7.16.54,6.37-3.02,10.13Z"/><path class="cls-1" d="M514.39,484.47c.9,3.3-6.2,3.17-3.33,7.89-7.89-1.69-3.83-4.44-3.62-8.19.07-1.19-3.73-8.85-.21-9.59,2.28-.48,4.24,8.74,7.16,9.89Z"/><path class="cls-1" d="M145.06,849.88c-.86.46-2.85-1.42-4.16-.38l-2.92,5.4-5.57-2.79.54-2.1c8.5.67,5.61-9.55,14.81-5.9,1.12,1.35-1.86,5.32-2.69,5.77Z"/><path class="cls-1" d="M683.78,307.88c-.25.41-4.55,3.44-5.06,3.55-1.47.32-3.68-1.18-5.29-.05-.9.64-1.19,4.61-4.22,4.71-1.65-6.34,7.34-6.49,10.65-10.19l3.01-8.44c1.21,3.23,2.92,7.04.91,10.42Z"/><path class="cls-1" d="M417.02,574.19c.15,2.25-1.87,4.29.79,6.75-3.13,3.75-6.89,1.5-10.15-.86l6.62-1.47c2.84-6.11-5.26-4.8-7.49-8.26,3.71.84,5.45-1.7,8.54-2.55-.66,2.41,1.56,4.51,1.69,6.39Z"/><path class="cls-1" d="M425.64,568.26c-2.54,2.19-5.79-4.36-4.8-5.59,5.34-1.09,7.2-5.54,13.3-4.2-1.53,4.33-7.64,4.41-8.5,9.79Z"/><path class="cls-1" d="M951.57,45.63c-6.31,2.11-7.16-8.96-.33-8.32.56,2.33,4.65,6.88.33,8.32Z"/><path class="cls-1" d="M975.57,13.6c.81,1.17,3.23.03,3.05,1.63-2.17-.14-2.14,1.66-2.63,3.33l-4.95-.89c-.3-2.98.13-8.24,4.16-7.53.05,1.03-.2,2.63.37,3.45Z"/><path class="cls-1" d="M929.9,66.93l-2.32-1.87-.12-1.78c.7-1.84,3.97-2.49,1.67-5.31-.79-.97-2.75-.69-2.63-2.04l4.62-.71c5,3.62-1.02,7.12-1.22,11.71Z"/><path class="cls-1" d="M837.59,162.7l-2.45-.11c-8.4-13.3,1.99-12.9,2.45.11Z"/><path class="cls-1" d="M974.36,22.87v3.38s-6.88-.38-6.88-.38c-1.85-1.36-1.76-6.35.46-6.37.8,0,2.62,5.43,6.42,3.38Z"/><path class="cls-1" d="M924.95,68.46c1.18.67,3.4-.66,3.24,1.01l-5.85.73c-2.1-4.14-4.7-8.09.72-10.89-.59,2.31-.35,7.87,1.89,9.15Z"/><path class="cls-1" d="M525.61,466.09l-.87-6.78h5.99c.38,3.49-1.36,6.54-5.12,6.78Z"/><path class="cls-1" d="M22.62,965.22l-6.47-5.04c4.28-.25,13.57.95,6.47,5.04Z"/><path class="cls-1" d="M549.53,445.75c-4.31,1.57-4.31-6.32-2.12-6.77,2.81-.58,2.17,5.36,2.12,6.77Z"/><path class="cls-1" d="M947,57.61h-3.41s.85-7.63.85-7.63h3.41c-1.43,3.14-1.93,4.11-.85,7.63Z"/></svg>